<?xml version="1.0" encoding="UTF-8" standalone="no"?>
<!-- Created with Inkscape (http://www.inkscape.org/) -->

<svg
   width="37.130859mm"
   height="37.999352mm"
   viewBox="0 0 37.130859 37.999352"
   version="1.1"
   id="svg1"
   inkscape:version="1.3.1 (9b9bdc1480, 2023-11-25, custom)"
   sodipodi:docname="community.svg"
   xml:space="preserve"
   xmlns:inkscape="http://www.inkscape.org/namespaces/inkscape"
   xmlns:sodipodi="http://sodipodi.sourceforge.net/DTD/sodipodi-0.dtd"
   xmlns="http://www.w3.org/2000/svg"
   xmlns:svg="http://www.w3.org/2000/svg"><sodipodi:namedview
     id="namedview1"
     pagecolor="#505050"
     bordercolor="#eeeeee"
     borderopacity="1"
     inkscape:showpageshadow="0"
     inkscape:pageopacity="0"
     inkscape:pagecheckerboard="0"
     inkscape:deskcolor="#505050"
     inkscape:document-units="px"
     inkscape:zoom="3.8551605"
     inkscape:cx="18.15748"
     inkscape:cy="78.206861"
     inkscape:window-width="1920"
     inkscape:window-height="965"
     inkscape:window-x="0"
     inkscape:window-y="0"
     inkscape:window-maximized="1"
     inkscape:current-layer="layer1"
     showgrid="false"
     showborder="false" /><defs
     id="defs1" /><g
     inkscape:label="Layer 1"
     inkscape:groupmode="layer"
     id="layer1"
     transform="translate(-86.254167,-129.38125)"><g
       id="g1"><rect
         style="fill:#ffffff;fill-opacity:1;stroke:none;stroke-width:0;stroke-dasharray:none;stroke-opacity:0.0588235"
         id="rect5"
         width="24.774071"
         height="30.127972"
         x="92.647034"
         y="128.88416" /><text
         xml:space="preserve"
         style="font-size:3.66644px;text-align:center;text-anchor:middle;opacity:0.958765;fill:#900319;fill-opacity:1;stroke:#5a0313;stroke-width:0"
         x="97.648987"
         y="164.22855"
         id="text1"
         transform="scale(1.0741113,0.93100221)"><tspan
           sodipodi:role="line"
           id="tspan1"
           style="font-size:3.66644px;text-align:center;text-anchor:middle;stroke-width:0"
           x="97.648987"
           y="164.22855">Your</tspan><tspan
           sodipodi:role="line"
           style="font-size:3.66644px;text-align:center;text-anchor:middle;stroke-width:0"
           x="97.648987"
           y="168.8116"
           id="tspan2">Community</tspan></text><path
         id="path1"
         style="opacity:0.958765;fill:#900319;fill-opacity:1;stroke:#d3d3d3;stroke-width:0;stroke-opacity:1"
         d="m 101.50787,134.94145 -0.94544,0.0476 -0.645557,0.24919 -0.436458,0.1999 -0.595089,0.53606 -0.561582,0.55936 -0.273155,0.49302 -0.145061,0.62031 -0.131063,0.74133 0.01569,0.69517 0.21038,0.88879 0.331266,1.00756 0.437303,0.87399 0.79529,1.32356 0.637926,0.74715 0.864,1.00173 0.46615,0.56609 0.69519,0.73057 0.47293,0.51812 0.48015,0.5504 0.46699,0.385 0.72785,0.66693 0.32236,0.38501 0.17432,0.17614 1.04512,-0.86054 1.1342,-1.13396 0.89878,-0.97395 1.0905,-1.19312 0.90853,-1.10348 0.84069,-1.10931 0.8869,-1.70003 0.32066,-0.95467 0.1035,-1.43157 -0.30412,-1.3101 c -0.029,-0.008 -0.0608,-0.0436 -0.0959,-0.12056 -0.0571,-0.12547 -0.0393,-0.0679 -0.0624,-0.16719 -0.004,-0.0265 -0.003,-0.034 -0.002,-0.0345 -10e-4,-0.004 -10e-4,-0.004 -0.005,-0.0112 -0.0505,-0.0735 -0.11101,-0.13819 -0.1616,-0.21156 -0.048,-0.0683 -0.10776,-0.12613 -0.16712,-0.18331 -0.13033,-0.12557 -0.18253,-0.25453 -0.17941,-0.35991 l -0.55862,-0.41728 -0.91448,-0.54636 -0.57769,-0.11474 -0.64048,-0.0184 -1.35008,0.20842 -0.97895,0.64092 -0.75754,1.24377 -0.38598,0.50602 -0.33805,-0.56967 -0.13616,-0.27564 -0.47887,-0.64856 -0.93865,-0.83275 -0.97811,-0.2779 z" /><path
         d="m 95.514068,147.06029 0.58965,-0.3772 0.03126,0.0443 q -0.15452,0.13012 -0.21539,0.25071 -0.06172,0.1194 -0.04815,0.26012 0.01357,0.14074 0.0913,0.25084 0.08787,0.12447 0.225785,0.15438 0.136659,0.0307 0.238496,-0.0344 0.07795,-0.0499 0.105739,-0.14235 0.04191,-0.13452 0.0022,-0.51391 -0.03229,-0.30944 -0.02144,-0.43625 0.0087,-0.12721 0.07053,-0.23101 0.06093,-0.105 0.162768,-0.17015 0.193615,-0.12385 0.435814,-0.0704 0.240098,0.0531 0.398936,0.27815 0.04985,0.0707 0.08247,0.14009 0.01991,0.0411 0.06374,0.18334 0.04172,0.14183 0.06369,0.17295 0.02113,0.03 0.05266,0.0358 0.03068,0.005 0.09569,-0.0247 l 0.03127,0.0443 -0.58462,0.374 -0.03126,-0.0443 q 0.161591,-0.14854 0.216196,-0.25991 0.05335,-0.11058 0.03765,-0.2569 -0.01654,-0.14751 -0.107786,-0.27677 -0.10561,-0.1496 -0.249421,-0.18269 -0.144656,-0.0343 -0.257808,0.0381 -0.06286,0.0402 -0.103325,0.11475 -0.04131,0.0733 -0.04762,0.17813 -0.0048,0.0708 0.02029,0.35707 0.02381,0.28706 0.0134,0.42228 -0.01124,0.13401 -0.06714,0.23579 -0.05591,0.10178 -0.16151,0.16934 -0.183558,0.11743 -0.410198,0.0678 -0.227895,-0.0488 -0.374061,-0.25584 -0.09125,-0.12926 -0.126846,-0.3167 -0.01588,-0.0871 -0.03531,-0.11466 -0.02196,-0.0311 -0.05434,-0.0382 -0.03448,-0.008 -0.102019,0.0183 z m -0.0408,-1.48116 q -0.128617,-0.2738 0.01195,-0.53266 0.120515,-0.22032 0.362505,-0.32333 0.170086,-0.0724 0.380802,-0.0689 0.210716,0.004 0.363525,0.10273 0.152189,0.0979 0.230721,0.26509 0.127999,0.27248 -0.02473,0.5302 -0.128519,0.2174 -0.367745,0.31923 -0.174233,0.0742 -0.384039,0.0656 -0.211807,-0.009 -0.356466,-0.10889 -0.146039,-0.099 -0.216532,-0.24901 z m 0.109052,0.002 q 0.03278,0.0697 0.110413,0.12202 0.07564,0.0515 0.205286,0.0484 0.129649,-0.003 0.301116,-0.0761 0.276561,-0.11772 0.428219,-0.30707 0.151038,-0.19066 0.07065,-0.36178 -0.05998,-0.12769 -0.20956,-0.16353 -0.149581,-0.0359 -0.419228,0.079 -0.337405,0.14362 -0.46607,0.36425 -0.08885,0.14997 -0.02083,0.29477 z m -0.801921,-2.10216 0.812234,-0.20647 q 0.232693,-0.0591 0.282643,-0.0823 0.04809,-0.0242 0.06233,-0.0517 0.01384,-0.0289 0.0052,-0.0595 -0.01211,-0.0432 -0.05223,-0.0912 l 0.04575,-0.0325 0.272454,0.33968 0.01759,0.0627 -0.283916,0.0722 q 0.233442,0.11677 0.305967,0.19087 0.07252,0.0741 0.09949,0.17022 0.0301,0.10727 -0.01202,0.20305 -0.04397,0.0948 -0.137817,0.15145 -0.09385,0.0567 -0.281173,0.10431 l -0.598565,0.15215 q -0.09513,0.0242 -0.126241,0.053 -0.03111,0.0288 -0.03919,0.0726 -0.0099,0.0428 0.01966,0.14275 l -0.05415,0.0138 -0.125448,-0.4472 0.897116,-0.22805 q 0.187325,-0.0476 0.228669,-0.12379 0.04096,-0.0776 0.01634,-0.16535 -0.0168,-0.0599 -0.07742,-0.12509 -0.06102,-0.0666 -0.201545,-0.14279 l -0.759547,0.19308 q -0.114152,0.029 -0.142333,0.0795 -0.03005,0.0494 0.0022,0.17556 l -0.05414,0.0138 z m -0.595004,-0.79525 0.451613,-0.0597 -0.04459,-0.30564 0.105026,-0.0139 0.04458,0.30565 0.891221,-0.11781 q 0.133532,-0.0177 0.174835,-0.0595 0.04109,-0.0433 0.03277,-0.1004 -0.0069,-0.0472 -0.04334,-0.0875 -0.03797,-0.0401 -0.101523,-0.0565 l -0.0081,-0.0557 q 0.154328,0.0306 0.242681,0.11205 0.08685,0.0817 0.101019,0.17881 0.0096,0.0657 -0.01877,0.13351 -0.02984,0.068 -0.09598,0.10731 -0.06765,0.0395 -0.216179,0.0591 l -0.924227,0.12217 0.03021,0.2071 -0.0495,0.007 q -0.04448,-0.0742 -0.134361,-0.14529 -0.0916,-0.0723 -0.209006,-0.12232 -0.0618,-0.0253 -0.221885,-0.0638 z m -0.40655,-1.03107 1.014769,-0.0151 q -0.1874,-0.15729 -0.24043,-0.25024 -0.05454,-0.0929 -0.05607,-0.18665 -0.0018,-0.11246 0.06196,-0.19416 0.0638,-0.0817 0.202509,-0.12271 0.09648,-0.0288 0.353963,-0.0327 l 0.490726,-0.008 q 0.131767,-0.002 0.179903,-0.0228 0.03612,-0.0149 0.05676,-0.0499 0.02065,-0.035 0.01912,-0.12719 l 0.05453,-7.6e-4 0.01062,0.6488 -0.05453,7.6e-4 -4.95e-4,-0.0302 q -0.0015,-0.0923 -0.03088,-0.12789 -0.03089,-0.0356 -0.08867,-0.0492 -0.0243,-0.004 -0.142442,-0.002 l -0.490725,0.008 q -0.227186,0.003 -0.297995,0.0275 -0.07083,0.0227 -0.104864,0.0722 -0.03555,0.0496 -0.03442,0.11877 0.0011,0.0707 0.04179,0.14648 0.04063,0.0758 0.162028,0.18075 l 0.733058,-0.0109 q 0.142371,-0.002 0.17697,-0.0171 0.03457,-0.0164 0.05815,-0.0571 0.02203,-0.0422 0.02038,-0.14307 l 0.05453,-7.6e-4 0.01072,0.65457 -0.05453,7.6e-4 q -0.0014,-0.088 -0.03104,-0.13799 -0.01561,-0.0286 -0.05831,-0.0453 -0.04269,-0.0167 -0.172947,-0.0147 l -1.255587,0.0187 q -0.237789,0.004 -0.292125,0.0158 -0.05436,0.0109 -0.07367,0.0343 -0.01933,0.0219 -0.01873,0.0594 4.96e-4,0.0302 0.02584,0.0977 l -0.05268,0.021 -0.176102,-0.39253 z m 0.958117,-1.7742 0.905818,0.1 q 0.1926,0.0213 0.248645,-0.0132 0.07266,-0.0457 0.08348,-0.13449 l 0.01448,-0.11889 0.05416,0.006 -0.09544,0.7835 -0.05416,-0.006 0.0072,-0.0588 q 0.007,-0.0573 -0.01735,-0.10789 -0.02434,-0.0506 -0.07339,-0.0734 -0.04889,-0.0243 -0.19635,-0.0406 l -0.90582,-0.1 -0.03105,0.25496 -0.108337,-0.012 0.03105,-0.25496 -0.09028,-0.01 q -0.206142,-0.0227 -0.341409,-0.10155 -0.135268,-0.0788 -0.206837,-0.21735 -0.0729,-0.14014 -0.05318,-0.302 0.01832,-0.1504 0.135993,-0.26516 0.07783,-0.0756 0.162093,-0.0663 0.04514,0.005 0.08123,0.0467 0.03458,0.0415 0.02935,0.0845 -0.004,0.033 -0.03262,0.0675 -0.02994,0.033 -0.117651,0.077 -0.08921,0.0439 -0.123211,0.0851 -0.034,0.0412 -0.04063,0.0957 -0.008,0.0659 0.024,0.11588 0.03053,0.0498 0.106331,0.0785 0.0743,0.0285 0.396298,0.0641 l 0.09931,0.011 0.04118,-0.33804 0.108336,0.012 z m -0.691783,-1.08226 q 0.01337,-0.0592 0.06704,-0.091 0.05249,-0.0335 0.114699,-0.0208 0.0622,0.0127 0.09707,0.0641 0.0352,0.05 0.02182,0.10919 -0.01337,0.0592 -0.06736,0.0924 -0.05399,0.0332 -0.11618,0.0205 -0.0622,-0.0127 -0.09591,-0.0624 -0.03487,-0.0514 -0.02119,-0.112 z m 0.735787,0.0282 1.089953,0.22311 q 0.127357,0.0261 0.174126,0.018 0.04561,-0.01 0.07398,-0.0394 0.02869,-0.031 0.04939,-0.12263 l 0.05332,0.0109 -0.14171,0.62733 -0.05332,-0.0109 q 0.02133,-0.0944 0.0094,-0.13081 -0.01193,-0.0364 -0.05221,-0.0638 -0.03997,-0.0288 -0.165846,-0.0546 l -0.522763,-0.10701 q -0.220655,-0.0452 -0.288681,-0.0458 -0.04962,1.7e-4 -0.07216,0.0177 -0.02402,0.0172 -0.0323,0.0538 -0.0089,0.0395 5.59e-4,0.10041 l -0.05777,0.009 -0.07797,-0.42304 z m 0.729367,-0.54752 q 0.292214,0.0957 0.507215,0.0127 0.215002,-0.083 0.280561,-0.26735 0.04371,-0.12293 0.0054,-0.23573 -0.0392,-0.11462 -0.189528,-0.23156 l 0.04376,-0.0331 q 0.186372,0.092 0.299457,0.2822 0.111649,0.18973 0.03783,0.39734 -0.08013,0.22536 -0.321088,0.32736 -0.241909,0.10017 -0.553262,-1.5e-4 -0.337181,-0.10864 -0.466865,-0.3331 -0.130634,-0.22629 -0.04225,-0.47487 0.07479,-0.21034 0.269215,-0.29841 0.192993,-0.0885 0.43691,-0.01 z m -0.08322,-0.0268 0.205907,-0.57911 q -0.128691,-0.0339 -0.188115,-0.0287 -0.09249,0.008 -0.162685,0.0618 -0.06972,0.0522 -0.09593,0.12589 -0.0403,0.11337 0.0209,0.23357 0.06026,0.11836 0.219923,0.18655 z m -0.449377,-2.01993 1.663677,0.7492 q 0.117757,0.053 0.16387,0.0547 0.04676,3.1e-4 0.08414,-0.0243 0.03602,-0.0252 0.082,-0.11781 l 0.0493,0.0222 -0.290839,0.58525 -0.04929,-0.0222 q 0.04081,-0.0821 0.03791,-0.12012 -0.0028,-0.038 -0.03556,-0.0735 -0.03266,-0.0355 -0.149047,-0.0879 l -1.139241,-0.51303 q -0.212239,-0.0956 -0.264698,-0.10803 -0.05383,-0.013 -0.08199,-2.3e-4 -0.02751,0.0115 -0.04307,0.0428 -0.01684,0.0339 -0.02084,0.0959 l -0.05893,5.9e-4 0.02349,-0.42491 z m 2.499761,-0.3268 q 0.0348,0.13574 0.02223,0.23758 -0.01384,0.10107 -0.07414,0.19102 -0.122227,0.18233 -0.373106,0.22152 -0.252155,0.0384 -0.503708,-0.1144 -0.251555,-0.15282 -0.358654,-0.42998 -0.108374,-0.27794 0.05052,-0.51497 0.0986,-0.14709 0.261292,-0.18339 l -0.215801,-0.13109 q -0.200476,-0.12178 -0.252965,-0.13998 -0.05168,-0.0194 -0.08131,-0.0101 -0.02964,0.009 -0.04919,0.0385 -0.02118,0.0316 -0.03579,0.0963 l -0.05529,-0.0114 0.07944,-0.41872 0.03667,-0.0547 1.352266,0.82144 q 0.205585,0.12489 0.257257,0.14431 0.05122,0.0174 0.08213,0.009 0.03173,-0.01 0.04965,-0.0365 0.022,-0.0328 0.03695,-0.10071 l 0.05366,0.0138 -0.07734,0.41828 -0.03749,0.0559 z m -0.08939,-0.0543 -0.602709,-0.36612 q -0.09172,-0.0455 -0.187674,-0.0525 -0.09595,-0.007 -0.17245,0.0321 -0.07696,0.0371 -0.115255,0.0942 -0.07171,0.10696 -0.02706,0.25212 0.05866,0.19128 0.314036,0.34642 0.257938,0.15669 0.467553,0.13349 0.208337,-0.024 0.296341,-0.15525 0.07415,-0.11061 0.02721,-0.28452 z m 0.05901,-1.84697 0.357087,0.29471 -0.03275,0.0359 q -0.20595,-0.0975 -0.326146,-0.0821 -0.119203,0.0143 -0.210492,0.11445 -0.06946,0.0763 -0.06977,0.15806 -3.21e-4,0.0818 0.05118,0.12431 0.0641,0.0529 0.141626,0.0558 0.07768,0.005 0.224599,-0.0551 l 0.226132,-0.092 q 0.314738,-0.12766 0.500149,0.0254 0.143063,0.11808 0.136925,0.29432 -0.0063,0.1742 -0.122387,0.30167 -0.08335,0.0915 -0.224852,0.18085 -0.04419,0.0265 -0.06503,0.0494 -0.02282,0.0251 -0.006,0.0638 l -0.03275,0.0359 -0.374254,-0.30888 0.03275,-0.0359 q 0.188015,0.10174 0.347665,0.0827 0.15965,-0.019 0.256893,-0.12577 0.06846,-0.0752 0.06536,-0.15981 -0.0033,-0.0867 -0.0685,-0.14051 -0.07897,-0.0652 -0.181385,-0.0562 -0.101421,0.008 -0.327705,0.0979 -0.226285,0.09 -0.337319,0.0842 -0.109889,-0.005 -0.209462,-0.087 -0.129329,-0.10674 -0.139906,-0.26242 -0.0096,-0.15677 0.112463,-0.29078 0.05358,-0.0588 0.156312,-0.12099 0.06777,-0.0414 0.08464,-0.0599 0.01588,-0.0174 0.0168,-0.0338 8.99e-4,-0.0165 -0.01465,-0.0522 z m 2.409696,-1.00491 -0.654909,0.42945 0.06912,0.32938 q 0.02548,0.12162 0.05899,0.16793 0.02664,0.0369 0.08344,0.0416 0.05718,0.003 0.18545,-0.0691 l 0.03179,0.044 -0.532658,0.34929 -0.03179,-0.044 q 0.09314,-0.0873 0.103706,-0.1363 0.02237,-0.0987 -0.02661,-0.32399 l -0.363954,-1.71542 0.04365,-0.0287 1.558082,0.95339 q 0.18797,0.11486 0.28059,0.12592 0.093,0.009 0.20084,-0.0529 l 0.0318,0.0439 -0.66739,0.43764 -0.0318,-0.044 q 0.0976,-0.071 0.11277,-0.12123 0.0164,-0.051 -0.0119,-0.0902 -0.0378,-0.0522 -0.16934,-0.13234 z m -0.0985,-0.065 -0.757812,-0.4626 0.176503,0.8438 z m 2.963767,-2.52342 0.23258,0.57828 -0.0509,0.0142 q -0.14499,-0.20004 -0.30151,-0.27822 -0.22562,-0.11305 -0.50189,-0.0362 -0.37659,0.10466 -0.48587,0.44298 -0.0909,0.28512 0.0106,0.61594 0.0824,0.26853 0.25934,0.45969 0.17699,0.19116 0.38477,0.24607 0.2088,0.0531 0.39492,0.002 0.10906,-0.0303 0.20277,-0.0849 0.0937,-0.0546 0.17253,-0.13207 l -0.1664,-0.5426 q -0.0433,-0.14119 -0.0797,-0.17763 -0.0354,-0.0382 -0.0902,-0.047 -0.0538,-0.0106 -0.17297,0.0225 l -0.0162,-0.0526 0.76338,-0.21215 0.0161,0.0526 -0.0363,0.0101 q -0.11342,0.0315 -0.13351,0.11521 -0.0133,0.0593 0.0329,0.21018 l 0.17617,0.57443 q -0.14091,0.13229 -0.29145,0.2177 -0.15054,0.0854 -0.34974,0.14076 -0.57145,0.15882 -0.97505,-0.10755 -0.30271,-0.19978 -0.40757,-0.54167 -0.076,-0.24777 -0.0205,-0.50952 0.0655,-0.31114 0.27978,-0.52841 0.17972,-0.18064 0.4749,-0.26267 0.1076,-0.03 0.19993,-0.0375 0.0938,-0.008 0.27261,0.004 0.0903,0.006 0.11797,-0.002 0.0276,-0.008 0.0394,-0.0365 0.0127,-0.0306 -0.005,-0.10238 z m 1.28918,0.48173 0.0303,0.29564 q 0.14312,-0.31172 0.32555,-0.32865 0.0829,-0.008 0.14218,0.0361 0.0591,0.0423 0.0656,0.10548 0.005,0.0559 -0.0294,0.0984 -0.0352,0.0424 -0.0895,0.0475 -0.0527,0.005 -0.12409,-0.0378 -0.07,-0.0442 -0.10163,-0.0413 -0.0272,0.002 -0.0558,0.0342 -0.0618,0.0651 -0.12038,0.20676 l 0.0645,0.63003 q 0.0112,0.10907 0.0456,0.16239 0.0236,0.0369 0.076,0.0582 0.0524,0.0212 0.14588,0.0126 l 0.005,0.0517 -0.70707,0.0656 -0.005,-0.0517 q 0.10552,-0.01 0.15355,-0.0461 0.0354,-0.0265 0.0453,-0.0781 0.004,-0.0251 -0.006,-0.13991 l -0.0521,-0.50948 q -0.0235,-0.22962 -0.0384,-0.2717 -0.0136,-0.0437 -0.0428,-0.0613 -0.0277,-0.0177 -0.0669,-0.0141 -0.0468,0.005 -0.10333,0.0313 l -0.0203,-0.0503 0.40115,-0.19949 z m 1.03353,0.48329 q -0.0142,0.29385 0.12991,0.46691 0.14412,0.17305 0.34844,0.18105 0.13621,0.005 0.23915,-0.0613 0.10452,-0.0681 0.18011,-0.23829 l 0.0457,0.0306 q -0.0403,0.19613 -0.20021,0.35295 -0.15984,0.15538 -0.3899,0.14636 -0.24971,-0.01 -0.42035,-0.20118 -0.16904,-0.1928 -0.15552,-0.50544 0.0146,-0.33857 0.20441,-0.5202 0.19135,-0.183 0.4668,-0.17221 0.23308,0.009 0.37656,0.16195 0.14355,0.15138 0.13296,0.39631 z m 0.004,-0.0836 0.64171,0.0252 q -0.002,-0.12709 -0.024,-0.1799 -0.0344,-0.0822 -0.10803,-0.13124 -0.0721,-0.049 -0.15389,-0.0522 -0.12563,-0.005 -0.22956,0.0848 -0.10236,0.0884 -0.12618,0.25339 z m 1.91471,0.92712 q -0.24199,0.11391 -0.30054,0.12769 -0.0877,0.0199 -0.17824,0.002 -0.14107,-0.0271 -0.21369,-0.1366 -0.0711,-0.10925 -0.0394,-0.25909 0.02,-0.0947 0.0792,-0.15543 0.0812,-0.0844 0.24916,-0.14049 0.16942,-0.0558 0.54559,-0.11009 l 0.0108,-0.0509 q 0.041,-0.19366 -0.009,-0.27828 -0.0485,-0.0843 -0.17183,-0.10798 -0.0936,-0.018 -0.15867,0.0196 -0.0665,0.0372 -0.0798,0.0994 l -0.0144,0.0826 q -0.0138,0.065 -0.0569,0.0935 -0.0416,0.0288 -0.0981,0.018 -0.0549,-0.0105 -0.0828,-0.0541 -0.0264,-0.0433 -0.0129,-0.10691 0.0258,-0.12157 0.17794,-0.19827 0.15221,-0.0767 0.38833,-0.0314 0.18116,0.0347 0.28471,0.11492 0.0784,0.0607 0.10017,0.16189 0.0139,0.066 -0.026,0.25392 l -0.0931,0.43961 q -0.0392,0.18518 -0.0407,0.229 -0.002,0.0425 0.0121,0.0597 0.0148,0.0176 0.0372,0.0218 0.0237,0.005 0.0436,-0.002 0.0351,-0.0124 0.14213,-0.0801 l -0.0167,0.0792 q -0.2112,0.18013 -0.36265,0.15108 -0.0728,-0.0139 -0.10566,-0.0703 -0.0329,-0.0563 -0.01,-0.17252 z m 0.0194,-0.0919 0.10443,-0.49333 q -0.24218,0.0418 -0.31499,0.0646 -0.13046,0.0397 -0.19532,0.0979 -0.0649,0.0581 -0.0819,0.13874 -0.0216,0.10177 0.028,0.18187 0.0497,0.0787 0.13295,0.0946 0.11285,0.0216 0.3269,-0.0844 z m 1.48675,-1.12283 -0.14615,0.41113 0.30706,0.0989 -0.0341,0.0956 -0.30705,-0.0989 -0.28843,0.81132 q -0.0432,0.12157 -0.0224,0.17546 0.0222,0.0544 0.0797,0.0729 0.0473,0.0152 0.10153,0.002 0.0547,-0.0143 0.0985,-0.0611 l 0.056,0.018 q -0.0978,0.11768 -0.21391,0.15639 -0.11562,0.0374 -0.21319,0.006 -0.066,-0.0212 -0.117,-0.0757 -0.0505,-0.0559 -0.0578,-0.12975 -0.007,-0.0753 0.0412,-0.21049 l 0.29911,-0.84138 -0.20805,-0.067 0.016,-0.0451 q 0.0896,-0.005 0.19662,-0.0493 0.10896,-0.0456 0.20849,-0.12313 0.0515,-0.0412 0.15933,-0.16027 z m 1.52678,1.59272 -0.31702,0.48305 q -0.10273,0.15653 -0.0916,0.21584 0.0135,0.0828 0.11242,0.14167 l 0.0668,0.0397 -0.0297,0.0453 -0.74639,-0.44389 0.0297,-0.0453 0.0656,0.039 q 0.11049,0.0657 0.20297,0.0255 0.0506,-0.0226 0.14367,-0.16448 l 0.70307,-1.07129 q 0.10273,-0.15653 0.0929,-0.21507 -0.0148,-0.0836 -0.11371,-0.14243 l -0.0656,-0.039 0.0297,-0.0453 0.63848,0.37971 q 0.23381,0.13906 0.3382,0.26575 0.1052,0.12547 0.12626,0.28932 0.021,0.16384 -0.0769,0.31304 -0.13323,0.20301 -0.35802,0.24615 -0.2235,0.0439 -0.48042,-0.1089 -0.063,-0.0374 -0.13056,-0.0895 -0.0676,-0.0521 -0.13986,-0.11889 z m 0.0458,-0.0697 q 0.06,0.0527 0.10872,0.0902 0.0486,0.0375 0.0859,0.0596 0.1336,0.0795 0.29416,0.039 0.16264,-0.041 0.26538,-0.19753 0.0706,-0.10761 0.0846,-0.22684 0.0147,-0.12044 -0.0404,-0.21611 -0.0543,-0.0969 -0.16219,-0.16107 -0.0656,-0.039 -0.18355,-0.0769 z m 2.17964,0.20612 -1.18692,1.33898 q -0.084,0.0948 -0.0975,0.13679 -0.0123,0.043 0.003,0.0837 0.0164,0.0396 0.0986,0.10562 l -0.0352,0.0396 -0.51979,-0.41754 0.0352,-0.0396 q 0.073,0.0586 0.11225,0.0657 0.0393,0.007 0.0837,-0.0139 0.0443,-0.021 0.12739,-0.11464 l 0.81277,-0.9169 q 0.15141,-0.17081 0.17749,-0.21589 0.0271,-0.0462 0.0213,-0.0754 -0.005,-0.0283 -0.0324,-0.0506 -0.0301,-0.0242 -0.092,-0.0437 l 0.0145,-0.0543 0.42546,0.13044 z m -0.40997,2.2204 q -0.26634,-0.0419 -0.32233,-0.0633 -0.0834,-0.0325 -0.14631,-0.0969 -0.098,-0.10035 -0.0898,-0.22964 0.009,-0.12824 0.12685,-0.23229 0.0744,-0.0657 0.15966,-0.0822 0.11772,-0.0234 0.28845,0.0243 0.17176,0.0488 0.51052,0.21373 l 0.04,-0.0353 q 0.15203,-0.13447 0.16325,-0.23101 0.0122,-0.0955 -0.0733,-0.18315 -0.0649,-0.0666 -0.14083,-0.0722 -0.077,-0.007 -0.12574,0.0364 l -0.0623,0.0591 q -0.0511,0.0452 -0.10353,0.0443 -0.0515,2.4e-4 -0.0906,-0.0399 -0.0381,-0.0391 -0.034,-0.09 0.004,-0.0498 0.0551,-0.094 0.0954,-0.0844 0.26606,-0.0622 0.17063,0.0223 0.33457,0.19023 0.12581,0.12888 0.16073,0.25152 0.0264,0.0927 -0.0179,0.18711 -0.0292,0.0612 -0.17674,0.19176 l -0.3451,0.30526 q -0.14537,0.12859 -0.1735,0.16332 -0.027,0.0337 -0.0268,0.0552 0.001,0.0225 0.0167,0.0384 0.0165,0.0169 0.0366,0.0227 0.036,0.009 0.16452,0.0139 l -0.0621,0.055 q -0.28193,0.029 -0.3871,-0.0788 -0.0505,-0.0518 -0.0427,-0.11576 0.008,-0.064 0.0978,-0.14555 z m 0.0721,-0.0638 0.38727,-0.34257 q -0.22228,-0.1006 -0.29539,-0.12254 -0.13027,-0.0403 -0.2186,-0.029 -0.0883,0.0112 -0.15157,0.0672 -0.0799,0.0707 -0.0888,0.16321 -0.008,0.0916 0.0499,0.15071 0.0784,0.0803 0.31719,0.1131 z m 1.27555,1.25635 q -0.25772,0.10384 -0.47271,0.0555 -0.21374,-0.0491 -0.32613,-0.20482 -0.13382,-0.18539 -0.0698,-0.43023 0.0641,-0.24484 0.34244,-0.42694 0.26967,-0.1764 0.54802,-0.13453 0.2792,0.0431 0.4336,0.25699 0.11581,0.16044 0.10056,0.32262 -0.014,0.16138 -0.11014,0.22426 -0.0475,0.031 -0.0988,0.0209 -0.0493,-0.01 -0.0871,-0.062 -0.0507,-0.0701 -0.0289,-0.1368 0.0116,-0.0374 0.0802,-0.0927 0.0694,-0.0541 0.0781,-0.12104 0.007,-0.0661 -0.0459,-0.13977 -0.0858,-0.11885 -0.2305,-0.13091 -0.19182,-0.0162 -0.39282,0.11524 -0.20476,0.13393 -0.29342,0.3319 -0.0866,0.19834 0.0309,0.36116 0.0841,0.11646 0.23463,0.15445 0.10461,0.0278 0.30028,-0.009 z m 0.54569,0.28401 q -0.27785,0.12873 -0.36851,0.33201 -0.0907,0.20328 -2.7e-4,0.37789 0.0602,0.11642 0.17103,0.17055 0.1128,0.0548 0.30597,0.0365 l -0.006,0.0528 q -0.20021,0.0602 -0.42137,0.002 -0.21981,-0.0593 -0.32158,-0.25586 -0.11046,-0.21342 -0.0156,-0.44763 0.0969,-0.23356 0.39179,-0.37187 0.3193,-0.14977 0.57764,-0.0781 0.26038,0.0724 0.38224,0.30779 0.10312,0.19918 0.0308,0.39225 -0.0709,0.19243 -0.30193,0.30078 z m 0.0789,-0.037 0.28389,0.54842 q 0.11622,-0.0625 0.15443,-0.1062 0.0593,-0.068 0.0695,-0.1531 0.0107,-0.0838 -0.0255,-0.15362 -0.0556,-0.10736 -0.18808,-0.15129 -0.13049,-0.0433 -0.2941,0.0158 z m 2.26855,3.17947 -0.46516,0.12106 -0.0125,-0.0534 q 0.12055,-0.0419 0.16749,-0.0799 0.0755,-0.0619 0.0983,-0.14352 0.0245,-0.0806 -0.003,-0.19879 l -0.0631,-0.26879 -1.53156,0.32566 q -0.18479,0.0393 -0.2217,0.087 -0.0495,0.0667 -0.0235,0.17785 l 0.0156,0.0661 -0.0547,0.0116 -0.18987,-0.80919 0.0547,-0.0116 0.0159,0.0676 q 0.0285,0.12102 0.11716,0.15534 0.0545,0.0209 0.2231,-0.0149 l 1.53156,-0.32566 -0.0539,-0.22939 q -0.0313,-0.13369 -0.0653,-0.18558 -0.0453,-0.0672 -0.13731,-0.1023 -0.092,-0.0351 -0.23036,-0.016 l -0.0125,-0.0534 0.47539,-0.0774 z m -0.55468,0.98019 q 0.0181,0.29944 -0.21009,0.49383 -0.1949,0.16514 -0.45957,0.17953 -0.18602,0.0101 -0.38165,-0.0644 -0.19565,-0.0746 -0.30143,-0.21903 -0.10569,-0.14301 -0.11666,-0.32585 -0.018,-0.298 0.22111,-0.4872 0.20131,-0.15971 0.46293,-0.17394 0.19056,-0.0104 0.38344,0.0687 0.19448,0.0804 0.29252,0.2224 0.0995,0.14191 0.1094,0.30602 z m -0.10098,-0.0393 q -0.005,-0.0763 -0.0577,-0.1514 -0.0515,-0.0738 -0.17377,-0.11476 -0.12233,-0.041 -0.30986,-0.0308 -0.30247,0.0165 -0.51491,0.1421 -0.21238,0.1271 -0.20115,0.31425 0.008,0.13964 0.13481,0.22376 0.12643,0.0841 0.42133,0.0681 0.369,-0.0201 0.57165,-0.18274 0.13905,-0.11011 0.12954,-0.26847 z m -1.08503,3.36388 -0.0199,0.0448 -0.51392,-0.26498 0.30199,-1.48651 0.055,0.0102 -0.0146,0.0722 q -0.0247,0.12175 0.0479,0.18946 0.0416,0.0385 0.21406,0.0703 l 1.30131,0.23956 q 0.18887,0.0348 0.24452,0.004 0.0767,-0.0431 0.0988,-0.15218 l 0.0146,-0.0722 0.055,0.0102 -0.17659,0.86926 -0.055,-0.0102 q 0.0325,-0.15263 0.0139,-0.22068 -0.0189,-0.0666 -0.0619,-0.098 -0.043,-0.0314 -0.22295,-0.0645 l -1.2671,-0.23326 q -0.12344,-0.0227 -0.17414,-0.009 -0.0348,0.0112 -0.0568,0.0439 -0.0221,0.0327 -0.0597,0.21811 l -0.0285,0.14016 q -0.045,0.22085 -0.0288,0.31634 0.0161,0.0955 0.0874,0.18499 0.0728,0.0898 0.24522,0.19788 z m 1.27439,1.07294 q -0.0207,0.0572 -0.0781,0.0827 -0.0563,0.0273 -0.11648,0.008 -0.0601,-0.0197 -0.0883,-0.0747 -0.0287,-0.0536 -0.008,-0.11089 0.0207,-0.0572 0.0785,-0.0841 0.0578,-0.0268 0.11792,-0.007 0.0601,0.0197 0.0874,0.0729 0.0281,0.055 0.007,0.11362 z m -0.72694,-0.11192 -1.05402,-0.34581 q -0.12317,-0.0404 -0.17061,-0.0377 -0.0465,0.005 -0.0784,0.0307 -0.0324,0.0275 -0.0645,0.11612 l -0.0515,-0.0169 0.21965,-0.60665 0.0515,0.0169 q -0.033,0.0913 -0.0258,0.1288 0.007,0.0374 0.0437,0.0693 0.036,0.0332 0.15777,0.0732 l 0.50554,0.16586 q 0.21339,0.0701 0.28085,0.0784 0.0493,0.005 0.0739,-0.009 0.0261,-0.0143 0.0388,-0.0498 0.0138,-0.0382 0.0121,-0.0998 l 0.0585,-0.002 0.0241,0.42889 z m -0.19037,0.4284 -0.28786,0.55781 -0.0503,-0.0235 0.0187,-0.0362 q 0.0261,-0.0505 0.0142,-0.0897 -0.0125,-0.038 -0.056,-0.0583 -0.0476,-0.0222 -0.12687,-0.0256 l -0.8302,-0.046 0.57083,0.61076 q 0.0608,0.0653 0.10021,0.0838 0.019,0.009 0.0366,0.005 0.0277,-0.005 0.0459,-0.0235 0.0195,-0.0182 0.0542,-0.0855 l 0.0504,0.0235 -0.1997,0.38697 -0.0504,-0.0235 q 0.0293,-0.0698 0.0195,-0.10654 -0.0174,-0.0644 -0.0939,-0.14512 l -0.85155,-0.92035 0.0274,-0.0531 1.26935,0.0682 q 0.0881,0.006 0.13273,-0.005 0.046,-0.0106 0.0884,-0.0406 0.0236,-0.0163 0.0678,-0.0759 z m -1.40517,1.44988 q -0.2524,-0.16971 -0.4832,-0.14734 -0.2308,0.0224 -0.34795,0.18192 -0.0781,0.10636 -0.0745,0.22484 0.004,0.12049 0.11388,0.27281 l -0.0518,0.0201 q -0.15188,-0.138 -0.20452,-0.35072 -0.0514,-0.21189 0.0805,-0.39153 0.14319,-0.19501 0.4045,-0.22873 0.2617,-0.0317 0.53112,0.14754 0.29176,0.19413 0.35026,0.44417 0.0589,0.25205 -0.0991,0.46715 -0.13364,0.18201 -0.34618,0.21475 -0.21131,0.0336 -0.42237,-0.10686 z m 0.072,0.0479 -0.36794,0.50112 q 0.11359,0.0668 0.17216,0.0776 0.0912,0.0168 0.17434,-0.0159 0.0823,-0.0315 0.12912,-0.0953 0.072,-0.0981 0.0485,-0.22979 -0.023,-0.12969 -0.15628,-0.23769 z"
         id="text3"
         style="font-size:3.89551px;font-family:'Times New Roman';-inkscape-font-specification:'Times New Roman, ';text-align:center;text-anchor:middle;opacity:0.959;fill:#143a1c;stroke:#fdf0f0;stroke-width:0;fill-opacity:1"
         aria-label="Southfields A Great Place To Live" /></g></g><g
     inkscape:groupmode="layer"
     id="layer2"
     inkscape:label="Layer 2" /></svg>
