<?xml version="1.0" encoding="UTF-8" standalone="no"?>
<!-- Created with Inkscape (http://www.inkscape.org/) -->

<svg
   width="505"
   height="120"
   viewBox="0 0 133.61436 31.750001"
   version="1.1"
   id="svg1"
   inkscape:version="1.3.1 (9b9bdc1480, 2023-11-25, custom)"
   sodipodi:docname="nameAndLogo.svg"
   xml:space="preserve"
   xmlns:inkscape="http://www.inkscape.org/namespaces/inkscape"
   xmlns:sodipodi="http://sodipodi.sourceforge.net/DTD/sodipodi-0.dtd"
   xmlns="http://www.w3.org/2000/svg"
   xmlns:svg="http://www.w3.org/2000/svg"><sodipodi:namedview
     id="namedview1"
     pagecolor="#505050"
     bordercolor="#eeeeee"
     borderopacity="1"
     inkscape:showpageshadow="0"
     inkscape:pageopacity="0"
     inkscape:pagecheckerboard="0"
     inkscape:deskcolor="#505050"
     inkscape:document-units="px"
     showborder="false"
     showguides="true"
     inkscape:zoom="1.363005"
     inkscape:cx="223.77027"
     inkscape:cy="162.50857"
     inkscape:window-width="1920"
     inkscape:window-height="965"
     inkscape:window-x="0"
     inkscape:window-y="0"
     inkscape:window-maximized="1"
     inkscape:current-layer="layer1"
     showgrid="false"><sodipodi:guide
       position="142.76269,15.874058"
       orientation="0,-1"
       id="guide1"
       inkscape:locked="false" /></sodipodi:namedview><defs
     id="defs1" /><g
     inkscape:label="Layer 1"
     inkscape:groupmode="layer"
     id="layer1"
     transform="translate(-3.4955499,127.62432)"><g
       id="layer2"
       inkscape:label="Layer 2"
       transform="translate(-2.2134753,-126.64132)" /><g
       id="layer2-7"
       inkscape:label="Layer 2"
       transform="translate(58.847252,-81.129074)" /><g
       id="g1"><rect
         style="opacity:0.959;fill:#ffffff;fill-opacity:1;stroke:#fdf0f0;stroke-width:0"
         id="rect1"
         width="133.61459"
         height="31.750002"
         x="3.4955497"
         y="-127.62431" /><text
         xml:space="preserve"
         style="font-style:normal;font-variant:normal;font-weight:bold;font-stretch:normal;font-size:8.46667px;font-family:'Times New Roman';-inkscape-font-specification:'Times New Roman, Bold';font-variant-ligatures:normal;font-variant-caps:normal;font-variant-numeric:normal;font-variant-east-asian:normal;text-align:center;text-anchor:middle;opacity:0.959;fill:#900319;fill-opacity:1;stroke:#fdf0f0;stroke-width:0"
         x="86.547096"
         y="-94.699135"
         id="text4"
         transform="scale(0.87237403,1.1462973)"><tspan
           sodipodi:role="line"
           id="tspan4"
           style="font-style:normal;font-variant:normal;font-weight:normal;font-stretch:normal;font-size:8.46667px;font-family:Forum;-inkscape-font-specification:Forum;font-variant-ligatures:normal;font-variant-caps:normal;font-variant-numeric:normal;font-variant-east-asian:normal;fill:#900319;fill-opacity:1;stroke-width:0"
           x="86.547096"
           y="-94.699135">The Southfields Connection</tspan></text><g
         id="g6"
         transform="translate(0,0.84191711)"><rect
           style="fill:#ffffff;fill-opacity:1;stroke:none;stroke-width:0;stroke-dasharray:none;stroke-opacity:0.0588235"
           id="rect5-5"
           width="27.059504"
           height="30.127972"
           x="4.1590247"
           y="-126.84421" /><text
           xml:space="preserve"
           style="font-style:normal;font-variant:normal;font-weight:normal;font-stretch:normal;font-size:4.23333px;font-family:sans-serif;-inkscape-font-specification:'sans-serif, ';font-variant-ligatures:normal;font-variant-caps:normal;font-variant-numeric:normal;font-variant-east-asian:normal;text-align:center;text-anchor:middle;opacity:0.958765;fill:#900319;fill-opacity:1;stroke:#5a0313;stroke-width:0"
           x="16.291498"
           y="-110.45218"
           id="text1-6"
           transform="scale(1.0741113,0.93100221)"><tspan
             sodipodi:role="line"
             id="tspan1-2"
             style="font-style:normal;font-variant:normal;font-weight:normal;font-stretch:normal;font-size:4.23333px;font-family:Forum;-inkscape-font-specification:Forum;font-variant-ligatures:normal;font-variant-caps:normal;font-variant-numeric:normal;font-variant-east-asian:normal;text-align:center;text-anchor:middle;stroke-width:0"
             x="16.291498"
             y="-110.45218">Your</tspan><tspan
             sodipodi:role="line"
             style="font-style:normal;font-variant:normal;font-weight:normal;font-stretch:normal;font-size:4.23333px;font-family:Forum;-inkscape-font-specification:Forum;font-variant-ligatures:normal;font-variant-caps:normal;font-variant-numeric:normal;font-variant-east-asian:normal;text-align:center;text-anchor:middle;stroke-width:0"
             x="16.291498"
             y="-105.09449"
             id="tspan2-9">Community</tspan></text><path
           id="path1-1"
           style="opacity:0.958765;fill:#900319;fill-opacity:1;stroke:#d3d3d3;stroke-width:0;stroke-opacity:1"
           d="m 14.120873,-120.78691 -0.94544,0.0476 -0.645557,0.24919 -0.436458,0.1999 -0.595089,0.53606 -0.561582,0.55936 -0.273155,0.49302 -0.145061,0.62031 -0.131063,0.74133 0.01569,0.69517 0.21038,0.88879 0.331266,1.00756 0.437303,0.87399 0.79529,1.32356 0.637926,0.74715 0.864,1.00173 0.46615,0.56609 0.69519,0.73057 0.47293,0.51812 0.48015,0.5504 0.46699,0.385 0.72785,0.66693 0.32236,0.38501 0.17432,0.17614 1.04512,-0.86054 1.1342,-1.13396 0.89878,-0.97395 1.0905,-1.19312 0.90853,-1.10348 0.84069,-1.10931 0.8869,-1.70003 0.32066,-0.95467 0.1035,-1.43157 -0.30412,-1.3101 c -0.029,-0.008 -0.0608,-0.0436 -0.0959,-0.12056 -0.0571,-0.12547 -0.0393,-0.0679 -0.0624,-0.16719 -0.004,-0.0265 -0.003,-0.034 -0.002,-0.0345 -0.001,-0.004 -0.001,-0.004 -0.005,-0.0112 -0.0505,-0.0735 -0.11101,-0.13819 -0.1616,-0.21156 -0.048,-0.0683 -0.10776,-0.12613 -0.16712,-0.18331 -0.13033,-0.12557 -0.18253,-0.25453 -0.17941,-0.35991 l -0.55862,-0.41728 -0.91448,-0.54636 -0.57769,-0.11474 -0.64048,-0.0184 -1.35008,0.20842 -0.97895,0.64092 -0.75754,1.24377 -0.38598,0.50602 -0.33805,-0.56967 -0.13616,-0.27564 -0.47887,-0.64856 -0.93865,-0.83275 -0.97811,-0.2779 z" /><path
           d="m 8.3132792,-108.53012 0.57176,-0.41078 0.03031,0.0482 q -0.149832,0.14171 -0.208855,0.27303 -0.05985,0.13003 -0.04669,0.28328 0.01316,0.15327 0.08853,0.27317 0.0852,0.13555 0.218934,0.16813 0.132513,0.0334 0.23126,-0.0375 0.07559,-0.0543 0.102531,-0.15502 0.04064,-0.14649 0.0021,-0.55966 -0.03131,-0.33699 -0.02079,-0.47509 0.0084,-0.13854 0.06839,-0.25158 0.05908,-0.11434 0.15783,-0.18529 0.18774,-0.13488 0.422591,-0.0767 0.2328128,0.0578 0.3868308,0.30291 0.04834,0.077 0.07997,0.15256 0.01931,0.0448 0.06181,0.19967 0.04045,0.15445 0.06176,0.18834 0.02049,0.0327 0.05106,0.039 0.02975,0.005 0.09279,-0.0269 l 0.03032,0.0483 -0.566882,0.40729 -0.03031,-0.0482 q 0.156688,-0.16177 0.209636,-0.28305 0.05173,-0.12043 0.03651,-0.27977 -0.01604,-0.16065 -0.104516,-0.30141 -0.102405,-0.16292 -0.2418528,-0.19896 -0.140267,-0.0373 -0.249986,0.0415 -0.06095,0.0438 -0.10019,0.12497 -0.04006,0.0798 -0.04617,0.19399 -0.0046,0.0771 0.01967,0.38886 0.02309,0.31261 0.01299,0.45987 -0.0109,0.14594 -0.0651,0.25679 -0.05421,0.11084 -0.156609,0.18441 -0.177989,0.12789 -0.397753,0.0738 -0.22098,-0.0532 -0.362712,-0.27862 -0.08848,-0.14077 -0.122997,-0.3449 -0.0154,-0.0948 -0.03424,-0.12486 -0.02129,-0.0339 -0.05269,-0.0416 -0.03343,-0.009 -0.09892,0.0199 z m -0.03956,-1.61303 q -0.124715,-0.29817 0.01159,-0.58008 0.116858,-0.23993 0.351506,-0.35211 0.164926,-0.0788 0.369249,-0.075 0.204322,0.004 0.352495,0.11188 0.147571,0.10661 0.223721,0.28869 0.124115,0.29674 -0.02398,0.5774 -0.12462,0.23676 -0.356588,0.34765 -0.168946,0.0808 -0.372387,0.0714 -0.20538,-0.01 -0.34565,-0.11858 -0.141608,-0.10782 -0.209963,-0.27118 z m 0.105743,0.002 q 0.03178,0.0759 0.107063,0.13289 0.07334,0.0561 0.199058,0.0527 0.125715,-0.003 0.29198,-0.0829 0.26817,-0.1282 0.415226,-0.33441 0.146456,-0.20763 0.06851,-0.39399 -0.05816,-0.13906 -0.203201,-0.17809 -0.145043,-0.0391 -0.406509,0.086 -0.327168,0.1564 -0.451929,0.39668 -0.08615,0.16332 -0.0202,0.32101 z m -0.77759,-2.28931 0.78759,-0.22485 q 0.225633,-0.0644 0.274068,-0.0896 0.04663,-0.0264 0.06044,-0.0563 0.01342,-0.0315 0.005,-0.0648 -0.01174,-0.047 -0.05064,-0.0993 l 0.04436,-0.0354 0.264187,0.36992 0.01706,0.0683 -0.275301,0.0786 q 0.226359,0.12717 0.296683,0.20786 0.07032,0.0807 0.09647,0.18538 0.02919,0.11682 -0.01165,0.22112 -0.04264,0.10324 -0.133635,0.16494 -0.091,0.0618 -0.272642,0.11359 l -0.580404,0.1657 q -0.09224,0.0263 -0.122411,0.0577 -0.03017,0.0314 -0.038,0.0791 -0.0096,0.0466 0.01906,0.15546 l -0.05251,0.015 -0.121642,-0.48701 0.869897,-0.24836 q 0.181641,-0.0518 0.221731,-0.13481 0.03972,-0.0845 0.01584,-0.18007 -0.01629,-0.0652 -0.07507,-0.13623 -0.05917,-0.0725 -0.19543,-0.1555 l -0.736502,0.21027 q -0.110689,0.0316 -0.138015,0.0866 -0.02914,0.0538 0.0021,0.19119 l -0.0525,0.015 z m -0.5769513,-0.86605 0.4379103,-0.065 -0.04324,-0.33285 0.10184,-0.0151 0.04323,0.33286 0.864181,-0.1283 q 0.12948,-0.0193 0.16953,-0.0648 0.03984,-0.0471 0.03178,-0.10934 -0.0067,-0.0514 -0.04203,-0.0953 -0.03682,-0.0437 -0.09844,-0.0615 l -0.0078,-0.0607 q 0.149646,0.0333 0.235318,0.12203 0.08422,0.089 0.09795,0.19473 0.0093,0.0716 -0.0182,0.1454 -0.02894,0.074 -0.09307,0.11686 -0.0656,0.043 -0.20962,0.0644 l -0.896185,0.13305 0.02929,0.22554 -0.048,0.008 q -0.04313,-0.0808 -0.130285,-0.15823 -0.08882,-0.0787 -0.202665,-0.13321 -0.05992,-0.0276 -0.2151524,-0.0695 z m -0.3942151,-1.12287 0.9839804,-0.0164 q -0.181714,-0.17129 -0.233135,-0.27252 -0.05288,-0.10117 -0.05437,-0.20327 -0.0018,-0.12247 0.06008,-0.21144 0.06186,-0.089 0.196364,-0.13364 0.09355,-0.0314 0.343224,-0.0356 l 0.475837,-0.009 q 0.127769,-0.002 0.174445,-0.0248 0.03502,-0.0162 0.05504,-0.0543 0.02002,-0.0381 0.01854,-0.13852 l 0.05288,-8.2e-4 0.0103,0.70656 -0.05288,8.3e-4 -4.8e-4,-0.0329 q -0.0015,-0.10052 -0.02994,-0.13928 -0.02995,-0.0388 -0.08598,-0.0536 -0.02356,-0.004 -0.13812,-0.002 l -0.475837,0.009 q -0.220293,0.003 -0.288953,0.0299 -0.06868,0.0247 -0.101683,0.0786 -0.03447,0.054 -0.03338,0.12935 0.0011,0.077 0.04052,0.15952 0.0394,0.0825 0.157112,0.19684 l 0.710817,-0.0119 q 0.138051,-0.002 0.171601,-0.0186 0.03352,-0.0179 0.05639,-0.0622 0.02136,-0.046 0.01976,-0.1558 l 0.05288,-8.3e-4 0.01039,0.71284 -0.05287,8.3e-4 q -0.0014,-0.0958 -0.0301,-0.15027 -0.01514,-0.0311 -0.05654,-0.0493 -0.0414,-0.0182 -0.1677,-0.016 l -1.217492,0.0204 q -0.2305742,0.004 -0.2832616,0.0172 -0.052711,0.0119 -0.071435,0.0374 -0.018744,0.0239 -0.018162,0.0647 4.81e-4,0.0329 0.025056,0.1064 l -0.051082,0.0229 -0.170759,-0.42748 z m 0.9290474,-1.93215 0.878335,0.1089 q 0.186756,0.0232 0.241101,-0.0144 0.07046,-0.0498 0.08095,-0.14647 l 0.01404,-0.12947 0.05252,0.007 -0.09254,0.85326 -0.05252,-0.007 0.007,-0.064 q 0.0068,-0.0624 -0.01682,-0.1175 -0.0236,-0.0551 -0.07116,-0.0799 -0.04741,-0.0265 -0.190393,-0.0442 l -0.878337,-0.1089 -0.03011,0.27766 -0.10505,-0.0131 0.03011,-0.27766 -0.08754,-0.0109 q -0.1998874,-0.0247 -0.3310503,-0.11059 -0.1311639,-0.0858 -0.2005615,-0.2367 -0.070688,-0.15262 -0.051566,-0.32889 0.017764,-0.16379 0.1318669,-0.28876 0.075469,-0.0823 0.1571751,-0.0722 0.04377,0.005 0.078765,0.0508 0.033531,0.0452 0.02846,0.092 -0.00388,0.0359 -0.03163,0.0735 -0.029032,0.0359 -0.1140814,0.0838 -0.086503,0.0478 -0.1194727,0.0927 -0.032968,0.0449 -0.039397,0.10422 -0.00776,0.0718 0.023272,0.12619 0.029604,0.0542 0.1031048,0.0855 0.072046,0.031 0.3842741,0.0698 l 0.0963,0.012 0.03993,-0.36814 0.105049,0.0131 z m -0.6707941,-1.17861 q 0.012964,-0.0645 0.065006,-0.0991 0.050897,-0.0365 0.1112189,-0.0227 0.060313,0.0138 0.094125,0.0698 0.03413,0.0545 0.02116,0.11891 -0.01296,0.0645 -0.065316,0.10063 -0.052352,0.0362 -0.1126551,0.0223 -0.060313,-0.0138 -0.093,-0.0679 -0.033812,-0.056 -0.020547,-0.12197 z m 0.7134631,0.0307 1.056883,0.24297 q 0.123493,0.0284 0.168843,0.0196 0.04423,-0.0109 0.07173,-0.0429 0.02782,-0.0338 0.04789,-0.13355 l 0.0517,0.0119 -0.137411,0.68318 -0.0517,-0.0119 q 0.02068,-0.10281 0.0091,-0.14246 -0.01157,-0.0396 -0.05063,-0.0695 -0.03876,-0.0314 -0.160814,-0.0595 l -0.506902,-0.11653 q -0.21396,-0.0492 -0.279922,-0.0499 -0.04811,1.8e-4 -0.06997,0.0193 -0.02329,0.0187 -0.03132,0.0586 -0.0086,0.043 5.42e-4,0.10935 l -0.05602,0.01 -0.0756,-0.4607 z m 0.707237,-0.59627 q 0.283348,0.10422 0.491826,0.0138 0.208479,-0.0904 0.272049,-0.29115 0.04238,-0.13387 0.0052,-0.25671 -0.03801,-0.12483 -0.183778,-0.25218 l 0.04243,-0.0361 q 0.180718,0.10019 0.290371,0.30733 0.108262,0.20662 0.03668,0.43271 -0.0777,0.24543 -0.311346,0.35651 -0.234569,0.10908 -0.536475,-1.7e-4 -0.326951,-0.11831 -0.4527,-0.36275 -0.126671,-0.24644 -0.04097,-0.51715 0.07252,-0.22907 0.261046,-0.32498 0.187138,-0.0964 0.423654,-0.0109 z m -0.0807,-0.0292 0.19966,-0.63067 q -0.124786,-0.0369 -0.182407,-0.0313 -0.08968,0.009 -0.15775,0.0673 -0.06761,0.0568 -0.09302,0.13709 -0.03908,0.12347 0.02027,0.25437 0.05843,0.1289 0.213251,0.20316 z m -0.435742,-2.19976 1.6132,0.8159 q 0.114184,0.0577 0.158898,0.0596 0.04534,3.3e-4 0.08159,-0.0265 0.03493,-0.0274 0.07951,-0.1283 l 0.0478,0.0242 -0.282015,0.63735 -0.0478,-0.0242 q 0.03957,-0.0894 0.03676,-0.13082 -0.0027,-0.0414 -0.03448,-0.08 -0.03167,-0.0387 -0.144525,-0.0957 l -1.104675,-0.5587 q -0.2058,-0.10411 -0.256667,-0.11765 -0.0522,-0.0142 -0.0795,-2.5e-4 -0.02668,0.0125 -0.04176,0.0466 -0.01633,0.0369 -0.02021,0.10444 l -0.05714,6.4e-4 0.02278,-0.46274 z m 2.4239168,-0.3559 q 0.03374,0.14783 0.02156,0.25873 -0.01342,0.11007 -0.07189,0.20803 -0.118519,0.19856 -0.3617858,0.24124 -0.244505,0.0418 -0.488425,-0.12458 -0.243923,-0.16643 -0.347773,-0.46827 -0.105086,-0.30268 0.04899,-0.56081 0.09561,-0.16019 0.253365,-0.19972 l -0.209254,-0.14276 q -0.194393,-0.13262 -0.24529,-0.15244 -0.05011,-0.0211 -0.07884,-0.011 -0.02874,0.01 -0.0477,0.0419 -0.02054,0.0344 -0.0347,0.10487 l -0.05361,-0.0124 0.07703,-0.45599 0.03556,-0.0596 1.3112378,0.89457 q 0.199347,0.13601 0.249451,0.15716 0.04967,0.019 0.07964,0.01 0.03077,-0.0109 0.04814,-0.0397 0.02133,-0.0357 0.03583,-0.10968 l 0.05203,0.015 -0.07499,0.45552 -0.03635,0.0609 z m -0.08668,-0.0591 -0.5844228,-0.39872 q -0.08894,-0.0496 -0.18198,-0.0572 -0.09304,-0.008 -0.167217,0.035 -0.07462,0.0404 -0.111759,0.10258 -0.06953,0.11648 -0.02624,0.27457 0.05688,0.20831 0.304508,0.37726 0.250112,0.17064 0.453368,0.14537 0.2020158,-0.0261 0.2873488,-0.16907 0.0719,-0.12046 0.02638,-0.30985 z m 0.05722,-2.01141 0.346253,0.32095 -0.03176,0.0391 q -0.199701,-0.10618 -0.31625,-0.0894 -0.115587,0.0156 -0.2041058,0.12464 -0.06735,0.0831 -0.06765,0.17213 -3.11e-4,0.0891 0.04963,0.13538 0.06216,0.0576 0.1373288,0.0608 0.07532,0.005 0.217785,-0.06 l 0.21927,-0.10019 q 0.305188,-0.13903 0.484974,0.0277 0.138722,0.12859 0.132771,0.32052 -0.0061,0.18971 -0.118674,0.32853 -0.08082,0.0996 -0.21803,0.19695 -0.04285,0.0289 -0.06306,0.0538 -0.02213,0.0273 -0.0058,0.0695 l -0.03176,0.0391 -0.362899,-0.33637 0.03176,-0.0391 q 0.182311,0.1108 0.337117,0.0901 0.154806,-0.0207 0.249098,-0.13697 0.06638,-0.0819 0.06338,-0.17403 -0.0032,-0.0944 -0.06642,-0.15302 -0.07657,-0.071 -0.175882,-0.0612 -0.09834,0.009 -0.317762,0.10662 -0.21942,0.098 -0.327084,0.0917 -0.106555,-0.005 -0.2031068,-0.0948 -0.125405,-0.11624 -0.135661,-0.28578 -0.0093,-0.17073 0.109051,-0.31667 0.05195,-0.064 0.1515688,-0.13176 0.06571,-0.0451 0.08207,-0.0652 0.0154,-0.019 0.01629,-0.0368 8.72e-4,-0.018 -0.01421,-0.0568 z m 2.336584,-1.09437 -0.635036,0.46768 0.067,0.3587 q 0.02473,0.13245 0.05721,0.18289 0.02579,0.0402 0.08087,0.0453 0.05546,0.003 0.17982,-0.0753 l 0.03084,0.0479 -0.516496,0.38039 -0.03084,-0.0479 q 0.09028,-0.0951 0.100563,-0.14843 0.02172,-0.10749 -0.02579,-0.35283 l -0.352916,-1.86815 0.04233,-0.0312 1.510809,1.03827 q 0.182267,0.12508 0.272077,0.13713 0.09018,0.01 0.194746,-0.0576 l 0.03083,0.0478 -0.647141,0.4766 -0.03083,-0.0479 q 0.09464,-0.0773 0.109348,-0.13202 0.0159,-0.0555 -0.01154,-0.0982 -0.03665,-0.0568 -0.164201,-0.14412 z m -0.09551,-0.0708 -0.734825,-0.50378 0.171155,0.91892 z m 2.873845,-2.74808 0.225523,0.62977 -0.04936,0.0155 q -0.140591,-0.21785 -0.292362,-0.30299 -0.218774,-0.12311 -0.486663,-0.0394 -0.365164,0.11398 -0.471128,0.48242 -0.08814,0.3105 0.01028,0.67077 0.0799,0.29244 0.251471,0.50062 0.171621,0.20818 0.373097,0.26798 0.202465,0.0578 0.382937,0.002 0.105751,-0.033 0.196619,-0.0924 0.09086,-0.0595 0.167294,-0.14383 l -0.161351,-0.59091 q -0.04199,-0.15376 -0.07728,-0.19344 -0.03433,-0.0416 -0.08746,-0.0512 -0.05217,-0.0115 -0.167721,0.0245 l -0.01571,-0.0573 0.740219,-0.23104 0.01561,0.0573 -0.0352,0.011 q -0.109979,0.0343 -0.12946,0.12546 -0.0129,0.0646 0.0319,0.2289 l 0.170823,0.62557 q -0.136634,0.14406 -0.282607,0.23708 -0.145972,0.093 -0.339129,0.15329 -0.554111,0.17296 -0.945466,-0.11712 -0.293526,-0.21757 -0.395203,-0.5899 -0.07369,-0.26983 -0.01988,-0.55488 0.06351,-0.33884 0.271291,-0.57545 0.174267,-0.19673 0.460491,-0.28606 0.104336,-0.0327 0.193864,-0.0408 0.09096,-0.009 0.264339,0.004 0.08756,0.007 0.114391,-0.002 0.02676,-0.009 0.0382,-0.0397 0.01231,-0.0333 -0.0048,-0.11149 z m 1.250064,0.52462 0.02938,0.32196 q 0.138778,-0.33947 0.315673,-0.35791 0.08038,-0.009 0.137866,0.0393 0.05731,0.0461 0.06361,0.11487 0.0048,0.0609 -0.02851,0.10716 -0.03413,0.0462 -0.08678,0.0517 -0.0511,0.005 -0.120325,-0.0412 -0.06788,-0.0481 -0.09855,-0.045 -0.02637,0.002 -0.05411,0.0373 -0.05992,0.0709 -0.116727,0.22517 l 0.06254,0.68612 q 0.01086,0.11878 0.04422,0.17684 0.02288,0.0402 0.07369,0.0634 0.05081,0.0231 0.141454,0.0137 l 0.0048,0.0563 -0.685617,0.0714 -0.0048,-0.0563 q 0.102319,-0.0109 0.148891,-0.0502 0.03433,-0.0289 0.04393,-0.085 0.0039,-0.0273 -0.0058,-0.15237 l -0.05052,-0.55483 q -0.02279,-0.25007 -0.03723,-0.29589 -0.01319,-0.0476 -0.0415,-0.0668 -0.02686,-0.0193 -0.06487,-0.0154 -0.04538,0.005 -0.100195,0.0341 l -0.01968,-0.0548 0.388979,-0.21725 z m 1.002172,0.52632 q -0.01377,0.32001 0.12597,0.50848 0.139747,0.18845 0.337868,0.19717 0.132077,0.005 0.231894,-0.0668 0.101349,-0.0742 0.174645,-0.25951 l 0.04431,0.0333 q -0.03908,0.21359 -0.194136,0.38437 -0.15499,0.16921 -0.37807,0.15939 -0.242133,-0.0109 -0.407597,-0.21909 -0.16391,-0.20997 -0.150801,-0.55044 0.01416,-0.36871 0.198208,-0.56651 0.185545,-0.19929 0.452638,-0.18754 0.226008,0.01 0.365134,0.17636 0.139195,0.16486 0.128926,0.4316 z m 0.0039,-0.091 0.62224,0.0274 q -0.0019,-0.13841 -0.02327,-0.19592 -0.03336,-0.0895 -0.104752,-0.14292 -0.06991,-0.0534 -0.149221,-0.0568 -0.121819,-0.005 -0.222595,0.0923 -0.09925,0.0963 -0.122351,0.27595 z m 1.856617,1.00966 q -0.234648,0.12405 -0.291422,0.13905 -0.08504,0.0217 -0.172832,0.002 -0.136791,-0.0295 -0.207206,-0.14876 -0.06894,-0.11898 -0.0382,-0.28216 0.01939,-0.10313 0.0768,-0.16926 0.07874,-0.0919 0.2416,-0.153 0.16428,-0.0608 0.529037,-0.11989 l 0.01047,-0.0554 q 0.03976,-0.21091 -0.0087,-0.30306 -0.04703,-0.0918 -0.166616,-0.11759 -0.09076,-0.0196 -0.153857,0.0213 -0.06448,0.0405 -0.07738,0.10825 l -0.01396,0.09 q -0.01338,0.0708 -0.05517,0.10182 -0.04034,0.0314 -0.09512,0.0196 -0.05324,-0.0114 -0.08029,-0.0589 -0.0256,-0.0472 -0.01251,-0.11643 0.02502,-0.1324 0.172542,-0.21592 0.147591,-0.0835 0.376547,-0.0342 0.175664,0.0378 0.276072,0.12515 0.07602,0.0661 0.09713,0.1763 0.01348,0.0719 -0.02521,0.27653 l -0.09027,0.47875 q -0.03801,0.20167 -0.03947,0.24939 -0.0019,0.0463 0.01173,0.065 0.01435,0.0192 0.03607,0.0237 0.02298,0.005 0.04228,-0.002 0.03403,-0.0135 0.137817,-0.0872 l -0.01619,0.0863 q -0.204792,0.19617 -0.351647,0.16453 -0.07059,-0.0151 -0.102454,-0.0765 -0.0319,-0.0613 -0.0097,-0.18788 z m 0.01881,-0.10009 0.101262,-0.53725 q -0.234832,0.0455 -0.305433,0.0704 -0.126502,0.0432 -0.189394,0.10662 -0.06293,0.0633 -0.07942,0.15109 -0.02094,0.11083 0.02715,0.19806 0.04819,0.0857 0.128916,0.10303 0.109426,0.0235 0.316982,-0.0919 z m 1.441642,-1.22279 -0.141716,0.44773 0.297743,0.10771 -0.03307,0.10411 -0.297734,-0.10771 -0.279679,0.88355 q -0.04189,0.1324 -0.02172,0.19109 0.02153,0.0592 0.07728,0.0794 0.04586,0.0166 0.09845,0.002 0.05304,-0.0156 0.09551,-0.0665 l 0.0543,0.0196 q -0.09483,0.12815 -0.20742,0.17031 -0.112112,0.0407 -0.206722,0.007 -0.064,-0.0231 -0.11345,-0.0824 -0.04897,-0.0609 -0.05605,-0.1413 -0.0068,-0.082 0.03995,-0.22923 l 0.290035,-0.91628 -0.201737,-0.073 0.01551,-0.0491 q 0.08688,-0.005 0.190655,-0.0537 0.105654,-0.0497 0.202164,-0.1341 0.04994,-0.0449 0.154496,-0.17453 z m 1.480457,1.73452 -0.307401,0.52605 q -0.09961,0.17047 -0.08882,0.23506 0.01309,0.0902 0.109009,0.15428 l 0.06477,0.0432 -0.0288,0.0493 -0.723744,-0.48341 0.0288,-0.0493 0.06361,0.0425 q 0.107137,0.0716 0.196812,0.0278 0.04906,-0.0246 0.139311,-0.17912 l 0.681738,-1.16667 q 0.09961,-0.17047 0.09008,-0.23422 -0.01435,-0.091 -0.11026,-0.15511 l -0.06361,-0.0425 0.0288,-0.0493 0.619108,0.41351 q 0.226716,0.15144 0.327939,0.28941 0.102008,0.13664 0.122429,0.31508 0.02036,0.17843 -0.07457,0.34091 -0.129188,0.22108 -0.347157,0.26806 -0.216719,0.0478 -0.465844,-0.11859 -0.06109,-0.0407 -0.126599,-0.0975 -0.06555,-0.0567 -0.135617,-0.12947 z m 0.04441,-0.0759 q 0.05818,0.0574 0.105421,0.0982 0.04713,0.0408 0.08329,0.0649 0.129546,0.0866 0.285235,0.0425 0.157705,-0.0446 0.257328,-0.21511 0.06846,-0.1172 0.08203,-0.24704 0.01425,-0.13116 -0.03917,-0.23535 -0.05265,-0.10553 -0.157269,-0.17541 -0.06361,-0.0425 -0.177981,-0.0838 z m 2.113508,0.22447 -1.150909,1.45819 q -0.08145,0.10324 -0.09454,0.14897 -0.01193,0.0468 0.0029,0.0911 0.0159,0.0431 0.09561,0.11502 l -0.03413,0.0431 -0.504021,-0.45471 0.03413,-0.0431 q 0.07079,0.0638 0.108844,0.0716 0.03811,0.008 0.08116,-0.0151 0.04296,-0.0229 0.123525,-0.12484 l 0.78811,-0.99853 q 0.146816,-0.18602 0.172105,-0.23511 0.02628,-0.0503 0.02065,-0.0821 -0.0048,-0.0308 -0.03142,-0.0551 -0.02919,-0.0264 -0.08921,-0.0476 l 0.01406,-0.0591 0.412551,0.14206 z m -0.397532,2.41808 q -0.258258,-0.0456 -0.31255,-0.0689 -0.08087,-0.0354 -0.141871,-0.10553 -0.09503,-0.10928 -0.08708,-0.25008 0.0087,-0.13966 0.123002,-0.25298 0.07214,-0.0715 0.154815,-0.0895 0.114149,-0.0255 0.279699,0.0265 0.166548,0.0531 0.49503,0.23276 l 0.03879,-0.0384 q 0.147417,-0.14645 0.158296,-0.25158 0.01183,-0.104 -0.07108,-0.19946 -0.06293,-0.0725 -0.136557,-0.0786 -0.07466,-0.008 -0.121925,0.0396 l -0.06041,0.0644 q -0.04955,0.0492 -0.100389,0.0482 -0.04994,2.6e-4 -0.08785,-0.0435 -0.03694,-0.0426 -0.03297,-0.098 0.0039,-0.0542 0.05343,-0.10237 0.09251,-0.0919 0.257988,-0.0677 0.165453,0.0243 0.324419,0.20717 0.121993,0.14035 0.155853,0.27391 0.0256,0.10095 -0.01736,0.20377 -0.02831,0.0667 -0.171377,0.20883 l -0.33463,0.33244 q -0.140959,0.14003 -0.168236,0.17786 -0.02618,0.0367 -0.02599,0.0601 9.7e-4,0.0245 0.01619,0.0418 0.016,0.0184 0.03549,0.0247 0.03491,0.01 0.159529,0.0151 l -0.06022,0.0599 q -0.273376,0.0316 -0.375355,-0.0858 -0.04897,-0.0564 -0.04141,-0.12607 0.0078,-0.0697 0.09483,-0.15851 z m 0.06991,-0.0695 0.375521,-0.37307 q -0.215536,-0.10955 -0.286427,-0.13345 -0.126318,-0.0439 -0.211968,-0.0316 -0.08562,0.0122 -0.146971,0.0732 -0.07748,0.077 -0.08611,0.17775 -0.0078,0.0998 0.04839,0.16412 0.07602,0.0875 0.307566,0.12317 z m 1.236849,1.3682 q -0.2499,0.11309 -0.458367,0.0604 -0.207255,-0.0535 -0.316234,-0.22305 -0.12976,-0.2019 -0.06768,-0.46853 0.06216,-0.26664 0.332051,-0.46495 0.261488,-0.19211 0.531392,-0.14651 0.270729,0.0469 0.420445,0.27987 0.112296,0.17472 0.09751,0.35134 -0.01357,0.17575 -0.106799,0.24423 -0.04606,0.0338 -0.0958,0.0228 -0.0478,-0.0109 -0.08446,-0.0675 -0.04916,-0.0763 -0.02802,-0.14898 0.01125,-0.0407 0.07777,-0.10095 0.06729,-0.0589 0.07573,-0.13182 0.0068,-0.072 -0.04451,-0.15221 -0.0832,-0.12943 -0.223506,-0.14257 -0.186,-0.0176 -0.380902,0.1255 -0.198547,0.14586 -0.284517,0.36145 -0.08397,0.216 0.02996,0.39331 0.08155,0.12683 0.227511,0.1682 0.101436,0.0303 0.29117,-0.01 z m 0.529134,0.3093 q -0.26942,0.14019 -0.357329,0.36157 -0.08795,0.22137 -2.62e-4,0.41153 0.05837,0.12678 0.165841,0.18573 0.109377,0.0597 0.296687,0.0397 l -0.0058,0.0575 q -0.194136,0.0656 -0.408586,0.002 -0.213141,-0.0646 -0.311823,-0.27864 -0.107109,-0.23242 -0.01513,-0.48748 0.09396,-0.25435 0.379902,-0.40498 0.309613,-0.1631 0.560114,-0.0851 0.25248,0.0789 0.370643,0.33519 0.09999,0.21692 0.02987,0.42717 -0.06875,0.20957 -0.292769,0.32756 z m 0.07651,-0.0403 0.275277,0.59725 q 0.112694,-0.0681 0.149744,-0.11566 0.0575,-0.074 0.06739,-0.16673 0.01037,-0.0913 -0.02473,-0.16729 -0.05391,-0.11692 -0.182373,-0.16476 -0.126531,-0.0472 -0.285177,0.0172 z m 2.199721,3.46254 -0.451047,0.13184 -0.01212,-0.0582 q 0.116892,-0.0456 0.162408,-0.087 0.07321,-0.0674 0.09532,-0.1563 0.02376,-0.0878 -0.0029,-0.21649 l -0.06119,-0.29272 -1.485092,0.35466 q -0.179183,0.0428 -0.214973,0.0947 -0.048,0.0726 -0.02279,0.19369 l 0.01513,0.072 -0.05304,0.0126 -0.184109,-0.88123 0.05304,-0.0126 0.01542,0.0736 q 0.02764,0.13179 0.113605,0.16917 0.05285,0.0228 0.216331,-0.0162 l 1.485092,-0.35465 -0.05227,-0.24981 q -0.03035,-0.1456 -0.06332,-0.20211 -0.04392,-0.0732 -0.133144,-0.1114 -0.08921,-0.0382 -0.22337,-0.0174 l -0.01212,-0.0582 0.460966,-0.0843 z m -0.537851,1.06745 q 0.01755,0.3261 -0.203715,0.5378 -0.188987,0.17984 -0.445626,0.19551 -0.180376,0.011 -0.37007,-0.0701 -0.189714,-0.0812 -0.292285,-0.23853 -0.102483,-0.15574 -0.11312,-0.35486 -0.01745,-0.32453 0.214401,-0.53058 0.195202,-0.17392 0.448885,-0.18942 0.184778,-0.0113 0.371806,0.0748 0.188579,0.0876 0.283645,0.2422 0.09648,0.15455 0.10608,0.33327 z m -0.09792,-0.0428 q -0.0048,-0.0831 -0.05595,-0.16487 -0.04994,-0.0804 -0.168497,-0.12498 -0.118619,-0.0446 -0.300459,-0.0335 -0.293293,0.018 -0.499287,0.15475 -0.205937,0.13841 -0.195047,0.34223 0.0078,0.15207 0.13072,0.24368 0.122594,0.0916 0.408546,0.0742 0.357805,-0.0219 0.554306,-0.19901 0.134831,-0.11991 0.12561,-0.29237 z m -1.052109,3.66337 -0.0193,0.0488 -0.498327,-0.28858 0.292827,-1.61885 0.05333,0.0111 -0.01416,0.0786 q -0.02395,0.13259 0.04645,0.20633 0.04034,0.0419 0.207566,0.0765 l 1.261827,0.26089 q 0.18314,0.0379 0.237101,0.004 0.07437,-0.0469 0.0958,-0.16573 l 0.01416,-0.0786 0.05333,0.0111 -0.171232,0.94665 -0.05333,-0.0111 q 0.03151,-0.16622 0.01348,-0.24033 -0.01833,-0.0725 -0.06002,-0.10672 -0.0417,-0.0342 -0.216186,-0.0702 l -1.228655,-0.25403 q -0.119695,-0.0247 -0.168857,-0.01 -0.03374,0.0122 -0.05508,0.0478 -0.02143,0.0356 -0.05789,0.23753 l -0.02764,0.15263 q -0.04364,0.24052 -0.02793,0.34451 0.01561,0.104 0.08475,0.20146 0.07059,0.0978 0.23778,0.21549 z m 1.235724,1.16846 q -0.02007,0.0623 -0.07573,0.0901 -0.05459,0.0297 -0.112945,0.009 -0.05828,-0.0214 -0.08562,-0.0813 -0.02783,-0.0584 -0.0078,-0.12076 0.02007,-0.0623 0.07612,-0.0916 0.05605,-0.0292 0.114343,-0.008 0.05828,0.0215 0.08475,0.0794 0.02725,0.0599 0.0068,0.12374 z m -0.704884,-0.12188 -1.022041,-0.3766 q -0.119433,-0.044 -0.165433,-0.0411 -0.04509,0.005 -0.07602,0.0334 -0.03142,0.0299 -0.06254,0.12645 l -0.04994,-0.0184 0.212985,-0.66066 0.04994,0.0184 q -0.032,0.0994 -0.02502,0.14027 0.0068,0.0407 0.04237,0.0755 0.03491,0.0362 0.152983,0.0797 l 0.490202,0.18062 q 0.206915,0.0763 0.272328,0.0854 0.04781,0.005 0.07166,-0.01 0.02531,-0.0156 0.03762,-0.0542 0.01338,-0.0416 0.01173,-0.10869 l 0.05673,-0.002 0.02337,0.46707 z m -0.184594,0.46654 -0.279127,0.60747 -0.04877,-0.0256 0.01813,-0.0394 q 0.02531,-0.055 0.01377,-0.0977 -0.01212,-0.0414 -0.0543,-0.0635 -0.04615,-0.0242 -0.12302,-0.0279 l -0.805012,-0.0501 0.553511,0.66514 q 0.05895,0.0711 0.09717,0.0913 0.01842,0.01 0.03549,0.005 0.02686,-0.005 0.04451,-0.0256 0.01891,-0.0198 0.05256,-0.0931 l 0.04887,0.0256 -0.193641,0.42142 -0.04887,-0.0256 q 0.02841,-0.076 0.01891,-0.11603 -0.01687,-0.0701 -0.09105,-0.15804 l -0.825713,-1.00228 0.02657,-0.0578 1.230837,0.0743 q 0.08543,0.007 0.128703,-0.005 0.0446,-0.0115 0.08572,-0.0442 0.02288,-0.0177 0.06574,-0.0827 z m -1.362537,1.57896 q -0.244742,-0.18482 -0.468539,-0.16046 -0.223797,0.0244 -0.337392,0.19811 -0.07573,0.11583 -0.07224,0.24486 0.0039,0.13122 0.110425,0.2971 l -0.05023,0.0219 q -0.147271,-0.15029 -0.198314,-0.38194 -0.04984,-0.23076 0.07806,-0.42639 0.138846,-0.21237 0.392227,-0.2491 0.253759,-0.0345 0.515005,0.16068 0.282908,0.21141 0.339633,0.48371 0.05711,0.27449 -0.09609,0.50874 -0.129586,0.19822 -0.335677,0.23387 -0.204899,0.0366 -0.409555,-0.11637 z m 0.06982,0.0522 -0.356777,0.54573 q 0.110144,0.0727 0.166937,0.0845 0.08843,0.0183 0.16905,-0.0173 0.0798,-0.0343 0.125203,-0.10379 0.06981,-0.10683 0.04703,-0.25024 -0.0223,-0.14124 -0.151538,-0.25886 z"
           id="path6"
           style="font-size:3.89551px;font-family:'Times New Roman';-inkscape-font-specification:'Times New Roman, ';text-align:center;text-anchor:middle;opacity:0.959;fill:#143a1c;fill-opacity:1;stroke:#fdf0f0;stroke-width:0"
           aria-label="Southfields A Great Place To Live" /></g></g></g></svg>
