<?xml version="1.0" encoding="UTF-8" standalone="no"?>
<!-- Created with Inkscape (http://www.inkscape.org/) -->

<svg
   width="505"
   height="120"
   viewBox="0 0 133.61436 31.750001"
   version="1.1"
   id="svg1"
   inkscape:version="1.3.1 (9b9bdc1480, 2023-11-25, custom)"
   sodipodi:docname="nameAndLogo.svg"
   xml:space="preserve"
   xmlns:inkscape="http://www.inkscape.org/namespaces/inkscape"
   xmlns:sodipodi="http://sodipodi.sourceforge.net/DTD/sodipodi-0.dtd"
   xmlns="http://www.w3.org/2000/svg"
   xmlns:svg="http://www.w3.org/2000/svg"><sodipodi:namedview
     id="namedview1"
     pagecolor="#505050"
     bordercolor="#eeeeee"
     borderopacity="1"
     inkscape:showpageshadow="0"
     inkscape:pageopacity="0"
     inkscape:pagecheckerboard="0"
     inkscape:deskcolor="#505050"
     inkscape:document-units="px"
     showborder="false"
     showguides="true"
     inkscape:zoom="1.363005"
     inkscape:cx="223.77027"
     inkscape:cy="162.50857"
     inkscape:window-width="1920"
     inkscape:window-height="965"
     inkscape:window-x="0"
     inkscape:window-y="0"
     inkscape:window-maximized="1"
     inkscape:current-layer="layer1"
     showgrid="false"><sodipodi:guide
       position="142.76269,15.874058"
       orientation="0,-1"
       id="guide1"
       inkscape:locked="false" /></sodipodi:namedview><defs
     id="defs1" /><g
     inkscape:label="Layer 1"
     inkscape:groupmode="layer"
     id="layer1"
     transform="translate(-3.4955499,127.62432)"><g
       id="layer2"
       inkscape:label="Layer 2"
       transform="translate(-2.2134753,-126.64132)" /><g
       id="layer2-7"
       inkscape:label="Layer 2"
       transform="translate(58.847252,-81.129074)" /><g
       id="g2"><rect
         style="opacity:0.959;fill:#ffffff;fill-opacity:1;stroke:#fdf0f0;stroke-width:0"
         id="rect1"
         width="133.61459"
         height="31.750002"
         x="3.4955497"
         y="-127.62431" /><text
         xml:space="preserve"
         style="font-style:normal;font-variant:normal;font-weight:normal;font-stretch:normal;font-size:8.46667px;font-family:Ubuntu;-inkscape-font-specification:'Ubuntu, @wght=700';font-variant-ligatures:normal;font-variant-caps:normal;font-variant-numeric:normal;font-variant-east-asian:normal;font-variation-settings:'wght' 700;text-align:center;text-anchor:middle;opacity:0.959;fill:#900319;fill-opacity:1;stroke:#fdf0f0;stroke-width:0"
         x="94.869736"
         y="-94.240906"
         id="text4"
         transform="scale(0.87237403,1.1462973)"><tspan
           sodipodi:role="line"
           id="tspan4"
           style="font-style:normal;font-variant:normal;font-weight:normal;font-stretch:normal;font-size:8.46667px;font-family:Ubuntu;-inkscape-font-specification:'Ubuntu, @wght=700';font-variant-ligatures:normal;font-variant-caps:normal;font-variant-numeric:normal;font-variant-east-asian:normal;font-variation-settings:'wght' 700;fill:#900319;fill-opacity:1;stroke-width:0"
           x="94.869736"
           y="-94.240906">The Southfields Connection</tspan></text><g
         id="g1"><rect
           style="fill:#ffffff;fill-opacity:1;stroke:none;stroke-width:0;stroke-dasharray:none;stroke-opacity:0.0588235"
           id="rect5-5"
           width="27.059504"
           height="30.127972"
           x="4.1590247"
           y="-126.00229" /><text
           xml:space="preserve"
           style="font-style:normal;font-variant:normal;font-weight:normal;font-stretch:normal;font-size:4.23333px;font-family:Ubuntu;-inkscape-font-specification:'Ubuntu, @wght=700';font-variant-ligatures:normal;font-variant-caps:normal;font-variant-numeric:normal;font-variant-east-asian:normal;text-align:center;text-anchor:middle;opacity:0.958765;fill:#900319;fill-opacity:1;stroke:#5a0313;stroke-width:0;font-variation-settings:'wght' 700"
           x="16.291498"
           y="-109.54787"
           id="text1-6"
           transform="scale(1.0741113,0.93100221)"><tspan
             sodipodi:role="line"
             id="tspan1-2"
             style="font-style:normal;font-variant:normal;font-weight:normal;font-stretch:normal;font-size:4.23332969px;font-family:Ubuntu;-inkscape-font-specification:'Ubuntu, @wght=700';font-variant-ligatures:normal;font-variant-caps:normal;font-variant-numeric:normal;font-variant-east-asian:normal;text-align:center;text-anchor:middle;stroke-width:0;font-variation-settings:'wght' 700"
             x="16.291498"
             y="-109.54787">Your</tspan><tspan
             sodipodi:role="line"
             style="font-style:normal;font-variant:normal;font-weight:normal;font-stretch:normal;font-size:4.23332969px;font-family:Ubuntu;-inkscape-font-specification:'Ubuntu, @wght=700';font-variant-ligatures:normal;font-variant-caps:normal;font-variant-numeric:normal;font-variant-east-asian:normal;text-align:center;text-anchor:middle;stroke-width:0;font-variation-settings:'wght' 700"
             x="16.291498"
             y="-104.19018"
             id="tspan2-9">Community</tspan></text><path
           id="path1-1"
           style="opacity:0.958765;fill:#900319;fill-opacity:1;stroke:#d3d3d3;stroke-width:0;stroke-opacity:1"
           d="m 14.120873,-119.94499 -0.94544,0.0476 -0.645557,0.24919 -0.436458,0.1999 -0.595089,0.53606 -0.561582,0.55936 -0.273155,0.49302 -0.145061,0.62031 -0.131063,0.74133 0.01569,0.69517 0.21038,0.88879 0.331266,1.00756 0.437303,0.87399 0.79529,1.32356 0.637926,0.74715 0.864,1.00173 0.46615,0.56609 0.69519,0.73057 0.47293,0.51812 0.48015,0.5504 0.46699,0.385 0.72785,0.66693 0.32236,0.38501 0.17432,0.17614 1.04512,-0.86054 1.1342,-1.13396 0.89878,-0.97395 1.0905,-1.19312 0.90853,-1.10348 0.84069,-1.10931 0.8869,-1.70003 0.32066,-0.95467 0.1035,-1.43157 -0.30412,-1.3101 c -0.029,-0.008 -0.0608,-0.0436 -0.0959,-0.12056 -0.0571,-0.12547 -0.0393,-0.0679 -0.0624,-0.16719 -0.004,-0.0265 -0.003,-0.034 -0.002,-0.0345 -0.001,-0.004 -0.001,-0.004 -0.005,-0.0112 -0.0505,-0.0735 -0.11101,-0.13819 -0.1616,-0.21156 -0.048,-0.0683 -0.10776,-0.12613 -0.16712,-0.18331 -0.13033,-0.12557 -0.18253,-0.25453 -0.17941,-0.35991 l -0.55862,-0.41728 -0.91448,-0.54636 -0.57769,-0.11474 -0.64048,-0.0184 -1.35008,0.20842 -0.97895,0.64092 -0.75754,1.24377 -0.38598,0.50602 -0.33805,-0.56967 -0.13616,-0.27564 -0.47887,-0.64856 -0.93865,-0.83275 -0.97811,-0.2779 z" /><path
           d="m 8.3131613,-108.20145 0.5717199,-0.39915 0.030308,0.0468 q -0.1498215,0.1377 -0.2088404,0.2653 -0.059846,0.12635 -0.046687,0.27526 0.013159,0.14893 0.088524,0.26544 0.085194,0.13171 0.2189187,0.16337 0.1325037,0.0325 0.2312438,-0.0364 0.075585,-0.0528 0.1025238,-0.15063 0.040637,-0.14234 0.0021,-0.54382 -0.031308,-0.32745 -0.020789,-0.46164 0.0084,-0.13462 0.068385,-0.24446 0.059076,-0.11111 0.1578189,-0.18005 0.1877269,-0.13106 0.4225614,-0.0745 0.2327956,0.0562 0.3868036,0.29434 0.04834,0.0748 0.07996,0.14824 0.01931,0.0435 0.06181,0.19402 0.04045,0.15008 0.06175,0.18301 0.02049,0.0318 0.05106,0.0379 0.02975,0.005 0.09278,-0.0261 l 0.03032,0.0469 -0.566842,0.39576 -0.03031,-0.0468 q 0.156677,-0.1572 0.209621,-0.27504 0.05173,-0.11702 0.03651,-0.27185 -0.01604,-0.15611 -0.104509,-0.29288 -0.102398,-0.15831 -0.2418353,-0.19333 -0.1402572,-0.0363 -0.2499685,0.0403 -0.060946,0.0426 -0.100183,0.12144 -0.040057,0.0775 -0.046167,0.1885 -0.0046,0.0749 0.019669,0.37785 0.023088,0.30376 0.012989,0.44685 -0.010899,0.14181 -0.065095,0.24953 -0.054206,0.1077 -0.1565981,0.17919 -0.1779765,0.12427 -0.3977251,0.0717 -0.2209645,-0.0517 -0.3626866,-0.27074 -0.088474,-0.13678 -0.1229884,-0.33513 -0.015399,-0.0921 -0.034238,-0.12133 -0.021289,-0.0329 -0.052686,-0.0404 -0.033428,-0.009 -0.098913,0.0193 z m -0.039557,-1.56737 q -0.1247063,-0.28973 0.011589,-0.56366 0.1168499,-0.23314 0.3514814,-0.34215 0.1649145,-0.0766 0.3692231,-0.0729 0.2043077,0.004 0.3524703,0.10872 0.1475607,0.10359 0.2237054,0.28052 0.1241063,0.28834 -0.023978,0.56105 -0.1246112,0.23006 -0.356563,0.33782 -0.1689341,0.0785 -0.3723609,0.0694 -0.2053656,-0.01 -0.3456258,-0.11522 -0.141598,-0.10477 -0.2099482,-0.2635 z m 0.1057356,0.002 q 0.031778,0.0738 0.1070554,0.12913 0.073335,0.0545 0.1990441,0.0512 0.1257062,-0.003 0.2919595,-0.0806 0.2681512,-0.12457 0.4151969,-0.32494 0.1464458,-0.20175 0.068505,-0.38284 -0.058156,-0.13512 -0.2031867,-0.17305 -0.1450329,-0.038 -0.4064805,0.0836 -0.3271451,0.15197 -0.4518974,0.38545 -0.086144,0.1587 -0.020198,0.31192 z m -0.7775356,-2.22452 0.7875348,-0.21848 q 0.2256172,-0.0626 0.2740488,-0.0871 0.046627,-0.0256 0.060436,-0.0547 0.013419,-0.0306 0.005,-0.063 -0.011739,-0.0457 -0.050637,-0.0965 l 0.044357,-0.0344 0.2641685,0.35945 0.017059,0.0664 -0.2752817,0.0764 q 0.2263431,0.12357 0.2966622,0.20197 0.070315,0.0784 0.096463,0.18014 0.029188,0.11351 -0.011649,0.21486 -0.042637,0.10032 -0.1336256,0.16027 -0.090994,0.06 -0.2726229,0.11038 l -0.5803633,0.16101 q -0.092233,0.0255 -0.1224024,0.0561 -0.030168,0.0305 -0.037997,0.0769 -0.0096,0.0453 0.019059,0.15106 l -0.052506,0.0146 -0.1216335,-0.47323 0.869836,-0.24133 q 0.1816283,-0.0503 0.2217155,-0.13099 0.039717,-0.0821 0.015839,-0.17498 -0.016289,-0.0633 -0.075065,-0.13237 -0.059166,-0.0704 -0.1954164,-0.1511 l -0.7364503,0.20432 q -0.1106813,0.0307 -0.1380054,0.0841 -0.029138,0.0523 0.0021,0.18578 l -0.052496,0.0146 z m -0.5769108,-0.84153 0.4378796,-0.0632 -0.043237,-0.32343 0.1018329,-0.0147 0.043227,0.32344 0.8641204,-0.12467 q 0.1294709,-0.0187 0.1695181,-0.063 0.039837,-0.0458 0.031778,-0.10625 -0.0067,-0.0499 -0.042027,-0.0926 -0.036817,-0.0425 -0.098433,-0.0598 l -0.0078,-0.059 q 0.1496355,0.0324 0.2353015,0.11857 0.084214,0.0865 0.097943,0.18922 0.0093,0.0696 -0.018199,0.14129 -0.028938,0.0719 -0.093063,0.11355 -0.065595,0.0418 -0.2096053,0.0626 l -0.8961222,0.12928 0.029288,0.21916 -0.047997,0.008 q -0.043127,-0.0785 -0.1302759,-0.15375 -0.088814,-0.0765 -0.2026507,-0.12944 -0.059916,-0.0268 -0.2151374,-0.0675 z m -0.3941875,-1.09109 0.9839114,-0.0159 q -0.1817012,-0.16644 -0.2331186,-0.26481 -0.052876,-0.0983 -0.054366,-0.19751 -0.0018,-0.11901 0.060076,-0.20546 0.061856,-0.0865 0.1963502,-0.12986 0.093544,-0.0305 0.3432,-0.0346 l 0.4758036,-0.009 q 0.1277601,-0.002 0.1744328,-0.0241 0.035018,-0.0157 0.055036,-0.0528 0.020019,-0.037 0.018539,-0.1346 l 0.052876,-7.9e-4 0.010299,0.68656 -0.052876,8.1e-4 -4.799e-4,-0.032 q -0.0015,-0.0977 -0.029938,-0.13534 -0.029948,-0.0377 -0.085974,-0.0521 -0.023558,-0.004 -0.1381103,-0.002 l -0.4758037,0.009 q -0.2202776,0.003 -0.2889327,0.029 -0.068675,0.024 -0.1016759,0.0764 -0.034468,0.0525 -0.033378,0.12569 0.0011,0.0748 0.040517,0.155 0.039397,0.0802 0.157101,0.19127 l 0.7107672,-0.0116 q 0.1380413,-0.002 0.1715889,-0.0181 0.033518,-0.0174 0.056386,-0.0604 0.021358,-0.0447 0.019759,-0.15139 l 0.052876,-8e-4 0.010389,0.69266 -0.052866,8.1e-4 q -0.0014,-0.0931 -0.030098,-0.14602 -0.015139,-0.0302 -0.056536,-0.0479 -0.041397,-0.0177 -0.1676882,-0.0156 l -1.2174067,0.0198 q -0.230558,0.004 -0.2832417,0.0167 -0.052707,0.0116 -0.07143,0.0363 -0.018743,0.0232 -0.018161,0.0629 4.81e-4,0.032 0.025054,0.10338 l -0.051078,0.0223 -0.1707471,-0.41538 z m 0.9289823,-1.87747 0.8782734,0.10582 q 0.186743,0.0225 0.2410841,-0.014 0.070455,-0.0484 0.080944,-0.14233 l 0.014039,-0.1258 0.052516,0.007 -0.092534,0.82911 -0.052516,-0.007 0.007,-0.0622 q 0.0068,-0.0606 -0.016819,-0.11418 -0.023598,-0.0535 -0.071155,-0.0776 -0.047407,-0.0257 -0.1903796,-0.0429 l -0.8782755,-0.10582 -0.030108,0.2698 -0.1050427,-0.0127 0.030108,-0.2698 -0.087534,-0.0106 q -0.1998734,-0.024 -0.3310271,-0.10746 -0.1311547,-0.0834 -0.2005474,-0.23 -0.070683,-0.1483 -0.051562,-0.31959 0.017763,-0.15915 0.1318577,-0.28058 0.075464,-0.08 0.1571641,-0.0702 0.043767,0.005 0.078759,0.0494 0.033529,0.0439 0.028458,0.0894 -0.00388,0.0349 -0.031628,0.0714 -0.02903,0.0349 -0.1140735,0.0814 -0.086497,0.0464 -0.1194643,0.0901 -0.032966,0.0436 -0.039394,0.10127 -0.00776,0.0698 0.02327,0.12262 0.029602,0.0527 0.1030975,0.0831 0.072041,0.0301 0.3842472,0.0678 l 0.096293,0.0117 0.039927,-0.35772 0.1050416,0.0127 z m -0.6707471,-1.14525 q 0.012963,-0.0627 0.065001,-0.0963 0.050893,-0.0355 0.1112112,-0.022 0.060309,0.0134 0.094118,0.0678 0.034128,0.053 0.021159,0.11554 -0.012959,0.0627 -0.065311,0.0978 -0.052348,0.0352 -0.1126473,0.0217 -0.060309,-0.0134 -0.092993,-0.066 -0.03381,-0.0544 -0.020546,-0.11852 z m 0.7134131,0.0298 1.0568089,0.23609 q 0.1234844,0.0276 0.1688312,0.019 0.044227,-0.0106 0.071725,-0.0417 0.027818,-0.0328 0.047887,-0.12977 l 0.051696,0.0116 -0.1374014,0.66384 -0.051696,-0.0116 q 0.020679,-0.0999 0.0091,-0.13843 -0.011569,-0.0385 -0.050626,-0.0675 -0.038757,-0.0305 -0.1608028,-0.0578 l -0.5068664,-0.11323 q -0.213945,-0.0478 -0.2799024,-0.0485 -0.048107,1.7e-4 -0.069965,0.0187 -0.023288,0.0182 -0.031318,0.057 -0.0086,0.0418 5.419e-4,0.10625 l -0.056016,0.01 -0.075595,-0.44766 z m 0.7071874,-0.57939 q 0.2833282,0.10127 0.4917916,0.0134 0.2084644,-0.0879 0.2720299,-0.28291 0.042377,-0.13009 0.0052,-0.24945 -0.038007,-0.1213 -0.1837651,-0.24504 l 0.042427,-0.0351 q 0.1807053,0.0974 0.2903506,0.29863 0.1082544,0.20077 0.036677,0.42046 -0.077695,0.23849 -0.3113241,0.34642 -0.2345526,0.106 -0.5364375,-1.6e-4 -0.326928,-0.11496 -0.4526682,-0.35248 -0.1266622,-0.23947 -0.040967,-0.50252 0.072515,-0.22258 0.2610277,-0.31578 0.1871249,-0.0937 0.4236244,-0.0106 z m -0.080694,-0.0284 0.199646,-0.61282 q -0.1247772,-0.0358 -0.1823942,-0.0304 -0.089674,0.009 -0.157739,0.0654 -0.067605,0.0552 -0.093013,0.13321 -0.039077,0.11998 0.020268,0.24717 0.058426,0.12526 0.2132361,0.19741 z m -0.4357115,-2.1375 1.613087,0.79281 q 0.114176,0.0561 0.1588868,0.0579 0.045337,3.2e-4 0.081584,-0.0258 0.034928,-0.0266 0.079505,-0.12467 l 0.047797,0.0235 -0.2819952,0.61931 -0.047797,-0.0235 q 0.039567,-0.0869 0.036757,-0.12711 -0.0027,-0.0402 -0.034478,-0.0777 -0.031668,-0.0376 -0.1445149,-0.093 l -1.1045976,-0.54289 q -0.2057856,-0.10116 -0.256649,-0.11432 -0.052196,-0.0138 -0.079494,-2.4e-4 -0.026678,0.0122 -0.041757,0.0453 -0.016329,0.0359 -0.020209,0.10148 l -0.057136,6.3e-4 0.022778,-0.44965 z m 2.4237478,-0.34583 q 0.03374,0.14365 0.02156,0.25141 -0.01342,0.10696 -0.07188,0.20214 -0.11851,0.19294 -0.3617607,0.23442 -0.2444879,0.0406 -0.4883908,-0.12106 -0.2439059,-0.16172 -0.3477487,-0.45502 -0.1050786,-0.29411 0.048987,-0.54493 0.095603,-0.15566 0.2533473,-0.19407 l -0.2092394,-0.13872 q -0.1943794,-0.12887 -0.2452728,-0.14813 -0.050107,-0.0205 -0.078834,-0.0107 -0.028738,0.01 -0.047697,0.0407 -0.020539,0.0334 -0.034698,0.1019 l -0.053606,-0.0121 0.077025,-0.44308 0.035557,-0.0579 1.3111461,0.86925 q 0.199333,0.13216 0.249434,0.15271 0.04967,0.0185 0.07963,0.01 0.03077,-0.0106 0.04814,-0.0386 0.02133,-0.0347 0.03583,-0.10658 l 0.05203,0.0146 -0.07498,0.44263 -0.03635,0.0592 z m -0.08667,-0.0574 -0.5843826,-0.38744 q -0.088934,-0.0482 -0.1819672,-0.0556 -0.093034,-0.008 -0.1672053,0.034 -0.074615,0.0393 -0.1117512,0.0997 -0.069525,0.11318 -0.026238,0.2668 0.056876,0.20241 0.3044867,0.36658 0.2500945,0.16581 0.4533362,0.14125 0.2020024,-0.0254 0.2873294,-0.16428 0.0719,-0.11705 0.02638,-0.30108 z m 0.05722,-1.95449 0.346228,0.31187 -0.03176,0.038 q -0.199687,-0.10317 -0.316228,-0.0869 -0.115579,0.0152 -0.2040921,0.12112 -0.067345,0.0808 -0.067645,0.16726 -3.11e-4,0.0866 0.049627,0.13154 0.062155,0.056 0.1373191,0.0591 0.07531,0.005 0.21777,-0.0583 l 0.219254,-0.0974 q 0.305167,-0.1351 0.48494,0.0269 0.138712,0.12495 0.132762,0.31145 -0.0061,0.18434 -0.118666,0.31923 -0.08081,0.0968 -0.218015,0.19138 -0.04285,0.0281 -0.06306,0.0523 -0.02213,0.0265 -0.0058,0.0675 l -0.03176,0.038 -0.362874,-0.32685 0.03176,-0.038 q 0.182298,0.10766 0.337093,0.0876 0.154795,-0.0201 0.249081,-0.13309 0.06637,-0.0796 0.06337,-0.16911 -0.0032,-0.0917 -0.06641,-0.14869 -0.07657,-0.069 -0.17587,-0.0595 -0.09833,0.009 -0.31774,0.10361 -0.219404,0.0952 -0.327061,0.0891 -0.106547,-0.005 -0.2030919,-0.0921 -0.1253962,-0.11295 -0.1356515,-0.27769 -0.0093,-0.1659 0.1090434,-0.3077 0.051946,-0.0622 0.151558,-0.12804 0.0657,-0.0438 0.08206,-0.0633 0.0154,-0.0185 0.01629,-0.0358 8.72e-4,-0.0175 -0.01421,-0.0552 z m 2.33642,-1.06339 -0.634992,0.45444 0.067,0.34855 q 0.02473,0.1287 0.05721,0.17771 0.02579,0.0391 0.08086,0.044 0.05546,0.003 0.179808,-0.0732 l 0.03084,0.0465 -0.516458,0.36962 -0.03084,-0.0465 q 0.09027,-0.0924 0.100555,-0.14423 0.02172,-0.10445 -0.02579,-0.34285 l -0.352891,-1.81527 0.04233,-0.0303 1.510703,1.00888 q 0.182255,0.12154 0.272058,0.13325 0.09017,0.01 0.194733,-0.056 l 0.03083,0.0464 -0.647095,0.46311 -0.03083,-0.0465 q 0.09463,-0.0751 0.10934,-0.12829 0.0159,-0.0539 -0.01154,-0.0954 -0.03665,-0.0552 -0.164189,-0.14004 z m -0.0955,-0.0688 -0.734774,-0.48952 0.171143,0.89291 z m 2.873643,-2.6703 0.225507,0.61195 -0.04936,0.0151 q -0.140581,-0.21169 -0.292342,-0.29442 -0.218758,-0.11962 -0.486628,-0.0383 -0.365139,0.11075 -0.471095,0.46876 -0.08813,0.30172 0.01028,0.65179 0.07989,0.28416 0.251453,0.48645 0.171609,0.20229 0.373071,0.2604 0.202451,0.0562 0.38291,0.002 0.105744,-0.0321 0.196605,-0.0898 0.09085,-0.0578 0.167283,-0.13975 l -0.16134,-0.57419 q -0.04199,-0.14941 -0.07728,-0.18797 -0.03433,-0.0404 -0.08745,-0.0498 -0.05217,-0.0112 -0.16771,0.0238 l -0.01571,-0.0557 0.740168,-0.2245 0.01561,0.0557 -0.0352,0.0107 q -0.109971,0.0333 -0.129451,0.12191 -0.0129,0.0628 0.0319,0.22242 l 0.170811,0.60786 q -0.136625,0.13999 -0.282587,0.23037 -0.145962,0.0904 -0.339106,0.14895 -0.554072,0.16807 -0.945399,-0.1138 -0.293506,-0.21141 -0.395176,-0.5732 -0.07368,-0.2622 -0.01988,-0.53918 0.06351,-0.32925 0.271272,-0.55916 0.174254,-0.19117 0.460458,-0.27797 0.104329,-0.0318 0.193851,-0.0396 0.09095,-0.009 0.26432,0.004 0.08755,0.007 0.114383,-0.002 0.02676,-0.009 0.0382,-0.0386 0.01231,-0.0323 -0.0048,-0.10833 z m 1.249977,0.50977 0.02938,0.31285 q 0.138767,-0.32986 0.315651,-0.34778 0.08037,-0.009 0.137855,0.0382 0.05731,0.0448 0.06361,0.11162 0.0048,0.0592 -0.02851,0.10412 -0.03413,0.0449 -0.08677,0.0502 -0.0511,0.005 -0.120316,-0.04 -0.06787,-0.0467 -0.09854,-0.0437 -0.02637,0.002 -0.05411,0.0362 -0.05992,0.0689 -0.116719,0.2188 l 0.06254,0.6667 q 0.01086,0.11542 0.04422,0.17184 0.02288,0.0391 0.07369,0.0616 0.05081,0.0225 0.141444,0.0133 l 0.0048,0.0547 -0.685569,0.0694 -0.0048,-0.0547 q 0.102312,-0.0106 0.148881,-0.0488 0.03433,-0.0281 0.04393,-0.0826 0.0039,-0.0265 -0.0058,-0.14806 l -0.05052,-0.53912 q -0.02279,-0.243 -0.03723,-0.28752 -0.01319,-0.0463 -0.0415,-0.0649 -0.02686,-0.0187 -0.06487,-0.015 -0.04538,0.005 -0.100188,0.0331 l -0.01968,-0.0532 0.388952,-0.2111 z m 1.002101,0.51143 q -0.01377,0.31095 0.125962,0.49408 0.139737,0.18312 0.337844,0.19159 0.132068,0.005 0.231878,-0.0649 0.101341,-0.0721 0.174631,-0.25216 l 0.04431,0.0324 q -0.03908,0.20754 -0.194122,0.37349 -0.154979,0.16442 -0.378043,0.15488 -0.242116,-0.0106 -0.407569,-0.21289 -0.163898,-0.20403 -0.15079,-0.53486 0.01416,-0.35828 0.198194,-0.55048 0.185532,-0.19365 0.452606,-0.18223 0.225992,0.01 0.365108,0.17137 0.139186,0.16019 0.128917,0.41938 z m 0.0039,-0.0884 0.622197,0.0266 q -0.0019,-0.1345 -0.02327,-0.19038 -0.03336,-0.087 -0.104744,-0.13887 -0.06991,-0.0519 -0.149211,-0.0552 -0.12181,-0.005 -0.222579,0.0897 -0.09924,0.0936 -0.122343,0.26814 z m 1.856487,0.98109 q -0.234631,0.12053 -0.291402,0.13511 -0.08503,0.0211 -0.172819,0.002 -0.136782,-0.0287 -0.207192,-0.14455 -0.06893,-0.11561 -0.0382,-0.27417 0.01939,-0.10021 0.07679,-0.16447 0.07873,-0.0893 0.241583,-0.14867 0.164269,-0.0591 0.529,-0.1165 l 0.01047,-0.0538 q 0.03976,-0.20494 -0.0087,-0.29448 -0.04703,-0.0892 -0.166604,-0.11426 -0.09075,-0.019 -0.153847,0.0207 -0.06448,0.0394 -0.07737,0.10519 l -0.01396,0.0874 q -0.01338,0.0688 -0.05517,0.0989 -0.04034,0.0305 -0.09511,0.0191 -0.05324,-0.0111 -0.08028,-0.0572 -0.0256,-0.0459 -0.01251,-0.11313 0.02502,-0.12865 0.17253,-0.20981 0.147581,-0.0811 0.376521,-0.0332 0.175651,0.0367 0.276052,0.12161 0.07601,0.0642 0.09712,0.17131 0.01348,0.0699 -0.02521,0.2687 l -0.09026,0.4652 q -0.03801,0.19596 -0.03947,0.24233 -0.0019,0.045 0.01173,0.0632 0.01435,0.0187 0.03607,0.023 0.02298,0.005 0.04228,-0.002 0.03403,-0.0131 0.137806,-0.0847 l -0.01619,0.0838 q -0.204778,0.19062 -0.351623,0.15988 -0.07059,-0.0147 -0.102447,-0.0743 -0.0319,-0.0596 -0.0097,-0.18256 z m 0.01881,-0.0973 0.101255,-0.52205 q -0.234816,0.0442 -0.305412,0.0684 -0.126493,0.042 -0.189382,0.1036 -0.06292,0.0615 -0.07941,0.14682 -0.02094,0.10769 0.02715,0.19245 0.04819,0.0833 0.128908,0.10012 0.109418,0.0228 0.31696,-0.0893 z m 1.441541,-1.18818 -0.141706,0.43505 0.297722,0.10467 -0.03307,0.10116 -0.297713,-0.10466 -0.279659,0.85854 q -0.04189,0.12865 -0.02172,0.18568 0.02153,0.0575 0.07728,0.0772 0.04586,0.0161 0.09844,0.002 0.05304,-0.0152 0.0955,-0.0646 l 0.0543,0.019 q -0.09482,0.12452 -0.207405,0.16549 -0.112104,0.0395 -0.206708,0.007 -0.064,-0.0224 -0.113442,-0.0801 -0.04897,-0.0592 -0.05605,-0.1373 -0.0068,-0.0797 0.03995,-0.22274 l 0.290015,-0.89035 -0.201723,-0.0709 0.01551,-0.0477 q 0.08687,-0.005 0.190642,-0.0522 0.105646,-0.0483 0.20215,-0.13031 0.04994,-0.0436 0.154485,-0.16959 z m 1.480353,1.68542 -0.307379,0.51117 q -0.0996,0.16564 -0.08881,0.2284 0.01309,0.0877 0.109001,0.14992 l 0.06477,0.042 -0.0288,0.0479 -0.723694,-0.46973 0.0288,-0.0479 0.06361,0.0413 q 0.107129,0.0696 0.196798,0.027 0.04906,-0.0239 0.139301,-0.17405 l 0.681691,-1.13365 q 0.0996,-0.16565 0.09007,-0.2276 -0.01435,-0.0884 -0.110252,-0.15072 l -0.06361,-0.0413 0.0288,-0.0479 0.619065,0.40181 q 0.2267,0.14715 0.327916,0.28122 0.102001,0.13277 0.12242,0.30616 0.02036,0.17338 -0.07456,0.33126 -0.129179,0.21482 -0.347133,0.26048 -0.216704,0.0464 -0.465811,-0.11524 -0.06109,-0.0396 -0.126591,-0.0947 -0.06555,-0.0551 -0.135607,-0.1258 z m 0.04441,-0.0737 q 0.05818,0.0558 0.105413,0.0954 0.04713,0.0397 0.08329,0.0631 0.129537,0.0841 0.285215,0.0413 0.157694,-0.0433 0.25731,-0.20902 0.06846,-0.11388 0.08202,-0.24005 0.01425,-0.12744 -0.03917,-0.22869 -0.05265,-0.10254 -0.157258,-0.17044 -0.06361,-0.0413 -0.177969,-0.0814 z m 2.11336,0.21812 -1.150829,1.41692 q -0.08144,0.10032 -0.09453,0.14475 -0.01193,0.0455 0.0029,0.0885 0.0159,0.0419 0.0956,0.11177 l -0.03413,0.0419 -0.503986,-0.44184 0.03413,-0.0419 q 0.07079,0.062 0.108837,0.0696 0.03811,0.008 0.08115,-0.0147 0.04296,-0.0222 0.123516,-0.12131 l 0.788055,-0.97027 q 0.146806,-0.18075 0.172093,-0.22845 0.02628,-0.0489 0.02065,-0.0798 -0.0048,-0.0299 -0.03142,-0.0535 -0.02919,-0.0256 -0.0892,-0.0463 l 0.01406,-0.0574 0.412522,0.13804 z m -0.397504,2.34964 q -0.25824,-0.0443 -0.312528,-0.0669 -0.08086,-0.0344 -0.141862,-0.10254 -0.09502,-0.10619 -0.08707,-0.243 0.0087,-0.13571 0.122993,-0.24582 0.07213,-0.0695 0.154804,-0.087 0.114141,-0.0248 0.279679,0.0258 0.166537,0.0516 0.494996,0.22617 l 0.03879,-0.0373 q 0.147407,-0.14231 0.158285,-0.24446 0.01183,-0.10106 -0.07108,-0.19382 -0.06293,-0.0704 -0.136547,-0.0764 -0.07465,-0.008 -0.121917,0.0385 l -0.06041,0.0626 q -0.04955,0.0478 -0.100382,0.0468 -0.04994,2.5e-4 -0.08784,-0.0423 -0.03694,-0.0414 -0.03297,-0.0952 0.0039,-0.0527 0.05343,-0.0995 0.0925,-0.0893 0.25797,-0.0658 0.165441,0.0236 0.324396,0.20131 0.121985,0.13637 0.155842,0.26615 0.0256,0.0981 -0.01736,0.19801 -0.02831,0.0648 -0.171365,0.20292 l -0.334607,0.32303 q -0.140949,0.13606 -0.168224,0.17282 -0.02618,0.0357 -0.02599,0.0584 9.7e-4,0.0238 0.01619,0.0406 0.016,0.0179 0.03549,0.024 0.03491,0.01 0.159518,0.0147 l -0.06022,0.0582 q -0.273357,0.0307 -0.375329,-0.0834 -0.04897,-0.0548 -0.04141,-0.12251 0.0078,-0.0677 0.09482,-0.15402 z m 0.0699,-0.0675 0.375494,-0.36251 q -0.21552,-0.10645 -0.286407,-0.12968 -0.126309,-0.0426 -0.211953,-0.0307 -0.08561,0.0118 -0.14696,0.0711 -0.07747,0.0748 -0.0861,0.17272 -0.0078,0.097 0.04839,0.15947 0.07602,0.085 0.307545,0.11969 z m 1.236762,1.32948 q -0.249882,0.10988 -0.458336,0.0587 -0.207239,-0.052 -0.316212,-0.21674 -0.12975,-0.19619 -0.06767,-0.45527 0.06216,-0.25909 0.332029,-0.45179 0.261469,-0.18667 0.531355,-0.14236 0.27071,0.0456 0.420415,0.27194 0.112288,0.16978 0.0975,0.3414 -0.01357,0.17078 -0.106792,0.23732 -0.04606,0.0328 -0.09579,0.0221 -0.0478,-0.0106 -0.08445,-0.0656 -0.04916,-0.0741 -0.02802,-0.14476 0.01125,-0.0396 0.07777,-0.0981 0.06728,-0.0572 0.07572,-0.12809 0.0068,-0.07 -0.04451,-0.1479 -0.08319,-0.12577 -0.22349,-0.13854 -0.185988,-0.0171 -0.380875,0.12195 -0.198534,0.14173 -0.284497,0.35122 -0.08396,0.20989 0.02996,0.38218 0.08154,0.12324 0.227495,0.16344 0.101429,0.0294 0.29115,-0.01 z m 0.529097,0.30054 q -0.269401,0.13622 -0.357304,0.35134 -0.08794,0.2151 -2.62e-4,0.39988 0.05837,0.12319 0.165829,0.18047 0.10937,0.058 0.296667,0.0386 l -0.0058,0.0559 q -0.194122,0.0637 -0.408557,0.002 -0.213126,-0.0628 -0.311801,-0.27076 -0.107102,-0.22584 -0.01513,-0.47368 0.09395,-0.24715 0.379875,-0.39352 0.309591,-0.15848 0.560075,-0.0827 0.252462,0.0767 0.370617,0.3257 0.09998,0.21078 0.02987,0.41508 -0.06875,0.20364 -0.292749,0.31829 z m 0.07651,-0.0392 0.275257,0.58035 q 0.112686,-0.0662 0.149733,-0.11239 0.0575,-0.0719 0.06738,-0.16201 0.01037,-0.0887 -0.02473,-0.16255 -0.05391,-0.11362 -0.18236,-0.1601 -0.126523,-0.0459 -0.285157,0.0167 z m 2.199566,3.36454 -0.451016,0.12811 -0.01212,-0.0566 q 0.116883,-0.0443 0.162396,-0.0845 0.0732,-0.0655 0.09531,-0.15188 0.02376,-0.0853 -0.0029,-0.21036 l -0.06119,-0.28443 -1.484988,0.34462 q -0.17917,0.0416 -0.214958,0.092 -0.048,0.0705 -0.02279,0.18821 l 0.01513,0.07 -0.05304,0.0122 -0.184096,-0.85629 0.05304,-0.0122 0.01542,0.0715 q 0.02764,0.12806 0.113597,0.16438 0.05285,0.0222 0.216316,-0.0157 l 1.484988,-0.34462 -0.05227,-0.24273 q -0.03035,-0.14148 -0.06331,-0.19639 -0.04392,-0.0711 -0.133135,-0.10825 -0.0892,-0.0371 -0.223354,-0.0169 l -0.01212,-0.0566 0.460933,-0.0819 z m -0.537813,1.03724 q 0.01755,0.31687 -0.203701,0.52258 -0.188973,0.17475 -0.445594,0.18998 -0.180364,0.0107 -0.370044,-0.0681 -0.189701,-0.0789 -0.292265,-0.23178 -0.102476,-0.15133 -0.113112,-0.34481 -0.01745,-0.31535 0.214386,-0.51557 0.195188,-0.169 0.448854,-0.18406 0.184765,-0.011 0.371779,0.0727 0.188566,0.0851 0.283626,0.23534 0.09647,0.15018 0.106072,0.32384 z m -0.09791,-0.0416 q -0.0048,-0.0807 -0.05595,-0.1602 -0.04994,-0.0781 -0.168485,-0.12144 -0.118611,-0.0433 -0.300438,-0.0326 -0.293273,0.0175 -0.499252,0.15037 -0.205923,0.1345 -0.195034,0.33255 0.0078,0.14776 0.130711,0.23678 0.122586,0.089 0.408518,0.0721 0.35778,-0.0213 0.554267,-0.19338 0.134821,-0.11651 0.125601,-0.28409 z m -1.052035,3.55969 -0.0193,0.0474 -0.498292,-0.28041 0.292806,-1.57304 0.05333,0.0108 -0.01416,0.0764 q -0.02395,0.12884 0.04645,0.2005 0.04034,0.0407 0.207552,0.0743 l 1.261739,0.25351 q 0.183127,0.0368 0.237084,0.004 0.07437,-0.0456 0.09579,-0.16104 l 0.01416,-0.0764 0.05333,0.0108 -0.17122,0.91986 -0.05333,-0.0108 q 0.03151,-0.16152 0.01348,-0.23353 -0.01833,-0.0705 -0.06002,-0.1037 -0.0417,-0.0332 -0.21617,-0.0682 l -1.228569,-0.24684 q -0.119687,-0.024 -0.168845,-0.01 -0.03374,0.0118 -0.05508,0.0464 -0.02143,0.0346 -0.05789,0.23081 l -0.02764,0.14831 q -0.04364,0.23371 -0.02793,0.33476 0.01561,0.10106 0.08474,0.19576 0.07059,0.095 0.237764,0.20939 z m 1.235637,1.13539 q -0.02007,0.0605 -0.07573,0.0875 -0.05459,0.0289 -0.112937,0.009 -0.05828,-0.0208 -0.08561,-0.079 -0.02783,-0.0567 -0.0078,-0.11735 0.02007,-0.0605 0.07612,-0.089 0.05605,-0.0284 0.114335,-0.008 0.05827,0.0209 0.08474,0.0772 0.02725,0.0582 0.0068,0.12024 z m -0.704834,-0.11843 -1.02197,-0.36594 q -0.119424,-0.0428 -0.165421,-0.0399 -0.04509,0.005 -0.07602,0.0325 -0.03142,0.029 -0.06254,0.12287 l -0.04994,-0.0179 0.21297,-0.64196 0.04994,0.0179 q -0.032,0.0966 -0.02502,0.1363 0.0068,0.0395 0.04237,0.0734 0.03491,0.0352 0.152972,0.0774 l 0.490167,0.17551 q 0.206901,0.0741 0.272309,0.083 0.04781,0.005 0.07165,-0.01 0.02531,-0.0152 0.03762,-0.0527 0.01338,-0.0404 0.01173,-0.10561 l 0.05673,-0.002 0.02337,0.45385 z m -0.184582,0.45333 -0.279107,0.59028 -0.04877,-0.0249 0.01813,-0.0383 q 0.02531,-0.0534 0.01377,-0.0949 -0.01212,-0.0402 -0.0543,-0.0617 -0.04615,-0.0235 -0.123012,-0.0271 l -0.804956,-0.0487 0.553472,0.64632 q 0.05895,0.0691 0.09716,0.0887 0.01842,0.01 0.03549,0.005 0.02686,-0.005 0.04451,-0.0249 0.01891,-0.0192 0.05256,-0.0905 l 0.04887,0.0249 -0.193628,0.40949 -0.04887,-0.0249 q 0.02841,-0.0739 0.01891,-0.11274 -0.01687,-0.0681 -0.09104,-0.15357 l -0.825655,-0.97391 0.02657,-0.0562 1.230751,0.0722 q 0.08542,0.007 0.128694,-0.005 0.0446,-0.0112 0.08571,-0.043 0.02288,-0.0172 0.06574,-0.0804 z m -1.362441,1.53428 q -0.244725,-0.17959 -0.468506,-0.15592 -0.223782,0.0237 -0.337369,0.1925 -0.07572,0.11255 -0.07223,0.23793 0.0039,0.12751 0.110417,0.28869 l -0.05023,0.0213 q -0.14726,-0.14604 -0.1983,-0.37113 -0.04984,-0.22423 0.07805,-0.41432 0.138836,-0.20636 0.392199,-0.24205 0.253741,-0.0335 0.514969,0.15613 0.282888,0.20543 0.339609,0.47002 0.05711,0.26672 -0.09608,0.49434 -0.129577,0.19261 -0.335653,0.22725 -0.204885,0.0356 -0.409527,-0.11307 z m 0.06981,0.0507 -0.356752,0.53028 q 0.110136,0.0707 0.166925,0.0821 0.08842,0.0178 0.169039,-0.0168 0.07979,-0.0333 0.125194,-0.10085 0.06981,-0.10381 0.04703,-0.24316 -0.0223,-0.13724 -0.151527,-0.25153 z"
           id="path6"
           style="font-size:3.89551px;font-family:'Times New Roman';-inkscape-font-specification:'Times New Roman, ';text-align:center;text-anchor:middle;opacity:0.959;fill:#143a1c;fill-opacity:1;stroke:#fdf0f0;stroke-width:0"
           aria-label="Southfields A Great Place To Live" /></g></g></g></svg>
